<svg width="21" height="21" viewBox="0 0 21 21" fill="none" xmlns="http://www.w3.org/2000/svg">
<g clip-path="url(#clip0)">
<path fill-rule="evenodd" clip-rule="evenodd" d="M9.90314 2.64731C10.1 2.63255 10.2992 2.625 10.5 2.625C14.8463 2.625 18.375 6.15366 18.375 10.5C18.375 14.8463 14.8463 18.375 10.5 18.375C6.15366 18.375 2.625 14.8463 2.625 10.5C2.625 10.2992 2.63254 10.1 2.64731 9.90314C2.92819 13.358 5.82455 16.0781 9.35156 16.0781C13.064 16.0781 16.0781 13.064 16.0781 9.35156C16.0781 5.82455 13.358 2.92819 9.90314 2.64731Z" fill="#29B85D"/>
<path fill-rule="evenodd" clip-rule="evenodd" d="M9.37496 12.431L13.9734 7.83254C14.2296 7.57633 14.6453 7.57633 14.9015 7.83254C15.1577 8.08876 15.1577 8.50444 14.9015 8.76066L9.83902 13.8231C9.5828 14.0794 9.16712 14.0794 8.9109 13.8231L6.09841 11.0107C5.8422 10.7544 5.8422 10.3388 6.09841 10.0825C6.35463 9.82632 6.77031 9.82632 7.02653 10.0825L9.37496 12.431Z" fill="black"/>
<path fill-rule="evenodd" clip-rule="evenodd" d="M15.6041 15.6043C12.787 18.4214 8.21252 18.4214 5.39543 15.6043C2.57834 12.7873 2.57835 8.21276 5.39543 5.39567C8.21252 2.57858 12.787 2.57858 15.6041 5.39567C17.8248 7.61637 18.2953 10.929 17.0149 13.6122C16.8587 13.9394 16.9976 14.3311 17.3242 14.4873C17.6511 14.6432 18.0434 14.5043 18.1993 14.1774C19.7122 11.0067 19.1568 7.09183 16.5324 4.46741C13.203 1.13802 7.79655 1.13802 4.46717 4.4674C1.13778 7.79679 1.13778 13.2032 4.46717 16.5326C7.79656 19.862 13.203 19.862 16.5324 16.5326C16.7885 16.2765 16.7885 15.8605 16.5324 15.6043C16.2762 15.3482 15.8603 15.3482 15.6041 15.6043Z" fill="black"/>
</g>
<defs>
<clipPath id="clip0">
<rect width="21" height="21" fill="white"/>
</clipPath>
</defs>
</svg>
