<svg width="14" height="18" viewBox="0 0 14 18" fill="none" xmlns="http://www.w3.org/2000/svg">
<path d="M9.55831 0.666748C11.8166 0.666748 13.6416 1.55841 13.6666 3.82508V16.4751C13.6666 16.6167 13.6333 16.7584 13.5666 16.8834C13.4583 17.0834 13.275 17.2334 13.05 17.3001C12.8333 17.3667 12.5916 17.3334 12.3916 17.2167L6.99165 14.5167L1.58331 17.2167C1.45915 17.2826 1.31665 17.3251 1.17498 17.3251C0.708313 17.3251 0.333313 16.9417 0.333313 16.4751V3.82508C0.333313 1.55841 2.16665 0.666748 4.41665 0.666748H9.55831ZM10.125 5.70008H3.84998C3.49165 5.70008 3.19998 5.99175 3.19998 6.35842C3.19998 6.72425 3.49165 7.01675 3.84998 7.01675H10.125C10.4833 7.01675 10.775 6.72425 10.775 6.35842C10.775 5.99175 10.4833 5.70008 10.125 5.70008Z" fill="white" fill-opacity="0.47"/>
</svg>
