<svg width="14" height="18" viewBox="0 0 14 18" fill="none" xmlns="http://www.w3.org/2000/svg">
<path d="M9.55834 0.666748C11.8167 0.666748 13.6417 1.55841 13.6667 3.82508V16.4751C13.6667 16.6167 13.6333 16.7584 13.5667 16.8834C13.4583 17.0834 13.275 17.2334 13.05 17.3001C12.8333 17.3667 12.5917 17.3334 12.3917 17.2167L6.99168 14.5167L1.58334 17.2167C1.45918 17.2826 1.31668 17.3251 1.17501 17.3251C0.708343 17.3251 0.333344 16.9417 0.333344 16.4751V3.82508C0.333344 1.55841 2.16668 0.666748 4.41668 0.666748H9.55834ZM10.125 5.70008H3.85001C3.49168 5.70008 3.20001 5.99175 3.20001 6.35842C3.20001 6.72425 3.49168 7.01675 3.85001 7.01675H10.125C10.4833 7.01675 10.775 6.72425 10.775 6.35842C10.775 5.99175 10.4833 5.70008 10.125 5.70008Z" fill="white"/>
</svg>
