<svg width="16" height="17" viewBox="0 0 16 17" fill="none" xmlns="http://www.w3.org/2000/svg">
<g clip-path="url(#clip0_146_278)">
<path d="M9.33366 1.64825V4.40195C9.33366 4.77532 9.33366 4.962 9.40632 5.10461C9.47024 5.23005 9.57222 5.33204 9.69766 5.39595C9.84027 5.46861 10.027 5.46861 10.4003 5.46861H13.154M9.33366 11.4686H5.33366M10.667 8.8019H5.33366M13.3337 6.79405V11.6019C13.3337 12.722 13.3337 13.2821 13.1157 13.7099C12.9239 14.0862 12.618 14.3922 12.2416 14.5839C11.8138 14.8019 11.2538 14.8019 10.1337 14.8019H5.86699C4.74689 14.8019 4.18683 14.8019 3.75901 14.5839C3.38269 14.3922 3.07673 14.0862 2.88498 13.7099C2.66699 13.2821 2.66699 12.722 2.66699 11.6019V4.66857C2.66699 3.54846 2.66699 2.98841 2.88498 2.56059C3.07673 2.18426 3.38269 1.8783 3.75901 1.68655C4.18683 1.46857 4.74689 1.46857 5.86699 1.46857H8.00818C8.49736 1.46857 8.74195 1.46857 8.97212 1.52383C9.17619 1.57282 9.37128 1.65363 9.55023 1.76329C9.75206 1.88697 9.92501 2.05992 10.2709 2.40583L12.3964 4.53131C12.7423 4.87721 12.9153 5.05016 13.0389 5.252C13.1486 5.43094 13.2294 5.62603 13.2784 5.8301C13.3337 6.06028 13.3337 6.30487 13.3337 6.79405Z" stroke="#929EAE" stroke-width="1.3" stroke-linecap="round" stroke-linejoin="round"/>
</g>
<defs>
<clipPath id="clip0_146_278">
<rect width="16" height="16" fill="white" transform="translate(0 0.135254)"/>
</clipPath>
</defs>
</svg>
