<?xml version="1.0" encoding="utf-8"?>
<!-- Generator: Adobe Illustrator 22.0.1, SVG Export Plug-In . SVG Version: 6.00 Build 0)  -->
<svg version="1.1" id="Layer_1" xmlns="http://www.w3.org/2000/svg" xmlns:xlink="http://www.w3.org/1999/xlink" x="0px" y="0px"
	 viewBox="0 0 585.8 595.3" style="enable-background:new 0 0 585.8 595.3;" xml:space="preserve">
<style type="text/css">
	.st0{fill:#FFFFFF;}
	.st1{fill-rule:evenodd;clip-rule:evenodd;fill:#FFFFFF;}
</style>
<path class="st0" d="M578.2,383.3c0,0.6-0.5,1-1,1H575c-3.6,0-6.6,2.9-6.6,6.6v0c0,0.6-2.8,1-3.4,1s-1-0.5-1-1v0
	c0-3.6-2.9-6.6-6.6-6.6h-2.1c-0.6,0-1-0.5-1-1s0.5-1,1-1h2.1h7.6h10h2.1C577.7,382.3,578.2,382.7,578.2,383.3z"/>
<g>
	<path class="st0" d="M126.8,383.3c0,0.6-0.5,1-1,1c-10.6,0-23.1,8.7-27.7,19.4l0,0l-41.1,95.4h14.9c0,0,0,0,0,0
		c18.2,0,33-14.8,33-33c0-0.6,0.5-1,1-1s1,0.5,1,1v34c0,0.6-0.5,1-1,1H54c0,0,0,0,0,0h-7.1H29.8c0,0,0,0,0,0h-20c-0.6,0-1-0.5-1-1
		c0-0.6,0.5-1,1-1c10.7,0,23.1-8.7,27.7-19.4l0,0c0,0,0,0,0,0l33.3-76.8c5-11.4,18.4-20.6,29.8-20.6h25.1
		C126.4,382.3,126.8,382.7,126.8,383.3z M28.7,417.3v-34c0-0.6,0.5-1,1-1h34c0.6,0,1,0.5,1,1c0,0.6-0.5,1-1,1c-18.2,0-33,14.8-33,33
		c0,0.6-0.5,1-1,1S28.7,417.9,28.7,417.3z"/>
	<path class="st0" d="M180.7,394.7l-36.9,98.3c-0.7,1.8-0.6,3.4,0.2,4.6c0.7,1,2,1.6,3.6,1.6h2.1c0.6,0,1,0.5,1,1s-0.5,1-1,1h-2.1
		h-10c0,0,0,0,0,0c0,0-7.6,0-7.6,0c0,0-2.1,0-2.1,0c-0.6,0-1-0.5-1-1s0.5-1,1-1h2.1c3.8,0,8.1-3.1,9.5-6.9c0,0,0,0,0,0l36.9-98.2
		c0.2-0.5,3.2-0.8,3.7-0.6C180.7,393.5,180.9,394.1,180.7,394.7z"/>
	<path class="st0" d="M241.5,500.1c0,0.6-0.5,1-1,1h-2.1h-7.6c0,0,0,0,0,0h-24c0,0,0,0,0,0h-7.6H197c-0.6,0-1-0.5-1-1s0.5-1,1-1h2.1
		c1.6,0,2.9-0.6,3.7-1.7c0.9-1.2,1-2.8,0.4-4.6l0,0l0,0l-9.3-28.4h-40.7c-0.6,0-1-2.8-1-3.4c0-0.6,0.5-1,1-1h39.2l-18.3-56.4
		c-3.5-10.6-14.9-19.3-25.5-19.3c-0.6,0-1-0.5-1-1c0-0.6,0.5-1,1-1h24c11.3,0,23.6,9.2,27.4,20.5c0,0,0,0,0,0s0,0,0,0l29.2,89.4
		c1.2,3.8,5.3,6.9,9.1,6.9h2.1C241,499.1,241.5,499.6,241.5,500.1z"/>
	<path class="st0" d="M364.1,391.8L330.4,482l0,0.1c0,0,0,0,0,0c0,0,0,0,0,0.1l-6.9,18.4c-0.2,0.4-0.6,0.7-1,0.7c0,0,6.6,0,9,0
		h-11.8c-13.7,0-14.2-9.2-18-20.5c0,0,0,0,0,0l-25.1-77.1c-3.5-10.6-14.9-19.2-25.5-19.2c-0.6,0-1-0.5-1-1s0.5-1,1-1h24
		c11.4,0,23.7,9.2,27.5,20.6l0.1,0.1l24.6,75.6l32.7-87.4c0.2-0.5,3.2-0.8,3.7-0.6C364,390.7,364.3,391.3,364.1,391.8z"/>
	<path class="st0" d="M281.3,500.1c0,0.6-0.5,1-1,1h-2.1h-7.6c0,0-10,0-10,0h-2.1c-0.6,0-1-0.5-1-1s0.5-1,1-1h2.1
		c3.6,0,6.6-2.9,6.6-6.6v0c0,0,0,0,0,0V387.6c0-0.6,2.8-1,3.4-1c0.6,0,1,0.5,1,1v104.9c0,3.6,2.9,6.6,6.6,6.6h2.1
		C280.8,499.1,281.3,499.6,281.3,500.1z"/>
	<path class="st0" d="M393.8,500.1c0,0.6-0.5,1-1,1h-2.1c0,0-7.6,0-7.6,0c0,0,0,0,0,0h-22.2c0,0,0,0,0,0h-7.6H351c-0.6,0-1-0.5-1-1
		s0.5-1,1-1h2.1c3.6,0,6.6-2.9,6.6-6.6V383.3c0-0.6,0.5-1,1-1h29.8c0,0,2.1,0,2.1,0c0.6,0,1,0.5,1,1s-0.5,1-1,1h-2.1
		c-3.6,0-6.6,2.9-6.6,6.6v101.6c0,3.6,2.9,6.6,6.6,6.6h2.1C393.3,499.1,393.8,499.6,393.8,500.1z"/>
	<path class="st0" d="M451,500.1c0,0.6-0.5,1-1,1h-2.1c0,0-37.4,0-37.4,0h-2.1c-0.6,0-1-0.5-1-1s0.5-1,1-1h2.1
		c3.6,0,6.6-2.9,6.6-6.6V390.9c0-3.6-2.9-6.6-6.6-6.6h-2.1c-0.6,0-1-0.5-1-1s0.5-1,1-1h2.1h7.6c0,0,0,0,0,0h22.2c0,0,0,0,0,0h7.6
		h2.1c0.6,0,1,0.5,1,1s-0.5,1-1,1h-2.1c-3.6,0-6.6,2.9-6.6,6.6v101.6c0,3.6,2.9,6.6,6.6,6.6h2.1C450.5,499.1,451,499.6,451,500.1z"
		/>
	<path class="st0" d="M568.5,387.1v113c0,0.6-2.8,1-3.4,1c0,0,0,0,0,0c0,0,0,0,0,0h-5.3c-11.4,0-24.7-9.3-29.6-20.6l-33.3-76.8h0
		l0,0l0,0c-4.6-10.7-17.1-19.4-27.7-19.4c-0.6,0-1-0.5-1-1c0-0.6,0.5-1,1-1h25.1c11.4,0,24.8,9.2,29.8,20.6l33.3,76.8c0,0,0,0,0,0
		c1.5,3.4,3.8,6.7,6.7,9.6V387.1c0-0.6,0.5-1,1-1C565.6,386.1,568.5,386.5,568.5,387.1z"/>
	<path class="st0" d="M502.2,500.1c0,0.6-0.5,1-1,1H499c0,0-7.6,0-7.6,0h0c0,0,0,0,0,0s0,0,0,0h-9.9h-2.1c-0.6,0-1-0.5-1-1
		c0-0.6,0.5-1,1-1h2.1c3.4,0,6.2-2.6,6.5-5.9V390.9c0-0.6,2.8-1,3.4-1s1,0.5,1,1v101.4c0,0.1,0,0.2,0,0.2v0c0,3.6,2.9,6.6,6.6,6.6
		h2.1C501.7,499.1,502.2,499.6,502.2,500.1z"/>
	<g>
		<path class="st0" d="M123.5,549.5v2.4h-7.6v28.2h-2.6v-28.2h-2.6v-2.4h2.6v-7c0-4.7,3.2-7,9.6-7h1.9v2.4h-1.9c-4.7,0-7,1.5-7,4.7
			v7H123.5z"/>
		<path class="st0" d="M162.4,573.8c0,4.7-3.2,7-9.6,7c-6.4,0-9.6-2.4-9.6-7v-17.9c0-4.7,3.2-7,9.6-7c6.4,0,9.6,2.4,9.6,7V573.8z
			 M159.8,555.9c0-3.1-2.4-4.7-7-4.7s-7,1.5-7,4.7v17.9c0,3.1,2.4,4.7,7,4.7s7-1.5,7-4.7V555.9z"/>
		<path class="st0" d="M199.7,549.5h2.6v30.6H200l-0.3-1c-2.1,1.1-4.9,1.6-8.3,1.6c-4.8,0-8.3-2.2-8.3-7v-24.2h2.6v24.2
			c0,3.1,2.4,4.7,7,4.7c2.6,0,5.2-0.5,6.2-0.8l0.8-0.3V549.5z"/>
		<path class="st0" d="M226.5,580.1h-2.5v-30.6h2.2l0.3,1c2.1-1.1,4.9-1.6,8.3-1.6c4.8,0,8.3,2.2,8.3,7v24.2h-2.6v-24.2
			c0-3.1-2.4-4.7-7-4.7c-2.6,0-5.2,0.5-6.2,0.8l-0.8,0.3V580.1z"/>
		<path class="st0" d="M280.4,535.5h2.6v44.6h-2.2l-0.3-1c-2.1,1.1-4.9,1.6-8.3,1.6c-4.8,0-8.3-2.2-8.3-7v-17.9c0-4.8,3.4-7,8.3-7
			c3.1,0,6.1,0.6,7.4,1.1l0.9,0.4V535.5z M280.4,577.3v-24.9c-1.7-0.8-4-1.1-7-1.1c-4.7,0-7,1.5-7,4.7v17.9c0,3.1,2.4,4.7,7,4.7
			c2.6,0,5.2-0.5,6.2-0.8L280.4,577.3z"/>
		<path class="st0" d="M320.8,549.5h2.2v30.6h-2.2l-0.3-1c-2.1,1.1-4.9,1.6-8.3,1.6c-4.8,0-8.3-2.2-8.3-7v-17.9c0-4.8,3.4-7,8.3-7
			c3.1,0,6.1,0.6,7.4,1.1l0.9,0.4L320.8,549.5z M320.5,577.3v-24.9c-1.7-0.8-4-1.1-7-1.1c-4.7,0-7,1.5-7,4.7v17.9
			c0,3.1,2.4,4.7,7,4.7c2.6,0,5.2-0.5,6.2-0.8L320.5,577.3z"/>
		<path class="st0" d="M355.9,551.9h-7.6v21.2c0,3.1,2.4,4.7,7,4.7h1.9v2.4h-1.9c-6.4,0-9.6-2.4-9.6-7v-21.2h-2.6v-2.4h2.6v-5.7
			l1.6-0.6h1v6.4h7.6V551.9z"/>
		<path class="st0" d="M376.9,535.5h2.5v10.2h-2.5V535.5z M376.9,580.1v-30.6h2.5v30.6H376.9z"/>
		<path class="st0" d="M419.7,573.8c0,4.7-3.2,7-9.6,7c-6.4,0-9.6-2.4-9.6-7v-17.9c0-4.7,3.2-7,9.6-7c6.4,0,9.6,2.4,9.6,7V573.8z
			 M417.1,555.9c0-3.1-2.4-4.7-7-4.7c-4.7,0-7,1.5-7,4.7v17.9c0,3.1,2.4,4.7,7,4.7c4.7,0,7-1.5,7-4.7V555.9z"/>
		<path class="st0" d="M443.3,580.1h-2.5v-30.6h2.2l0.3,1c2.1-1.1,4.9-1.6,8.3-1.6c4.8,0,8.3,2.2,8.3,7v24.2h-2.6v-24.2
			c0-3.1-2.4-4.7-7-4.7c-2.6,0-5.2,0.5-6.2,0.8l-0.8,0.3V580.1z"/>
	</g>
</g>
<g>
	<g>
		<circle class="st0" cx="287.4" cy="156.5" r="5.7"/>
		<path class="st1" d="M273.3,170.6c1.5-2.7,10.1-6.9,10.1-6.9s1,9.6-0.5,12.2s-10.1,6.9-10.1,6.9S271.8,173.3,273.3,170.6z"/>
		<path class="st1" d="M292.6,175.8c-1.6-2.6-0.9-12.2-0.9-12.2s8.8,3.9,10.4,6.6c1.6,2.6,0.9,12.2,0.9,12.2
			S294.2,178.4,292.6,175.8z"/>
		<path class="st1" d="M306.8,161.6c-3,0.1-11-5.3-11-5.3s7.8-5.6,10.9-5.7s11,5.3,11,5.3S309.9,161.6,306.8,161.6z"/>
		<path class="st1" d="M301.6,142.3c-1.5,2.7-10.1,6.9-10.1,6.9s-1-9.6,0.5-12.2s10.1-6.9,10.1-6.9S303.1,139.6,301.6,142.3z"/>
		<path class="st1" d="M282.2,137.1c1.6,2.6,0.9,12.2,0.9,12.2s-8.8-3.9-10.4-6.6c-1.6-2.6-0.9-12.2-0.9-12.2
			S280.7,134.5,282.2,137.1z"/>
		<path class="st1" d="M268.1,151.3c3-0.1,11,5.3,11,5.3s-7.8,5.6-10.9,5.7s-11-5.3-11-5.3S265,151.3,268.1,151.3z"/>
	</g>
	<path class="st0" d="M166.7,190.3V228l32.7,18.9l18.9,32.7h37.7l32.7,18.9l32.7-18.9H359l18.9-32.7l32.7-18.9v-37.7l18.9-32.7
		l-18.9-32.7V87.2l-32.7-18.9L359,35.7h-37.7l-32.7-18.9l-32.7,18.9h-37.7l-18.9,32.7l-32.7,18.9v37.7l-18.9,32.7L166.7,190.3z
		 M177.2,191.8h32l14.4-25l26.6,15.4V207h-32l-16.8,29l-24.3-14V191.8z M260.7,140.2v-31.4l27.9,16.1l27.9-16.1v31.4l26.4,15.2
		l-26.4,15.2v33.5l-27.9-16.1l-27.9,16.1v-28.2l-31-17.9L260.7,140.2z M209.4,243.3l14.9-25.8h26.4l16.8,29l-13,22.6h-30.1
		L209.4,243.3z M264.6,272.4l15-25.9l-17.8-30.8l26.8-15.5l24.5,14.2l-15.4,26.7l17.3,30l-26.4,15.2L264.6,272.4z M353,269.1h-27
		l-16.1-27.9l13.7-23.7H353l14.9,25.8L353,269.1z M375.8,236L359,207h-32v-30.2l24.3-14l16.8,29h32V222L375.8,236z M417.3,157.6
		l-13.7,23.7h-29.5l-14.9-25.8l14.9-25.8h27L417.3,157.6z M400.1,119.2h-32l-16.8,29l-24.3-14v-28.1h32l15.8-27.4l25.2,14.6V119.2z
		 M367.2,70.9L353,95.6h-28.3l-14.9-25.8l13.7-23.7H353L367.2,70.9z M313.1,43.1l-15.4,26.7l16.4,28.3l-25.5,14.7l-25.5-14.7
		l16.4-28.3l-15.4-26.7l24.5-14.2L313.1,43.1z M224.3,46.2h29.5l13.7,23.7l-14.9,25.8h-28.3L210,70.9L224.3,46.2z M202.4,78.7
		l15.8,27.4h32v28.1l-26.6,15.4l-14.4-25h-32V93.3L202.4,78.7z M173,135h30.1l13.4,23.1l-13.4,23.1h-29.5l-13.7-23.7L173,135z"/>
</g>
</svg>
