<svg width="32" height="32" viewBox="0 0 32 32" fill="none" xmlns="http://www.w3.org/2000/svg">
<path fill-rule="evenodd" clip-rule="evenodd" d="M6.8963 16C6.8963 14.9607 7.0688 13.9642 7.37705 13.0297L1.98455 8.91199C0.933553 11.0457 0.341553 13.4502 0.341553 16C0.341553 18.5477 0.933053 20.9505 1.9823 23.083L7.3718 18.9572C7.06655 18.027 6.8963 17.0342 6.8963 16Z" fill="#FBBC05"/>
<path fill-rule="evenodd" clip-rule="evenodd" d="M16.3642 6.5455C18.622 6.5455 20.6612 7.3455 22.2635 8.6545L26.9245 4C24.0842 1.52725 20.4427 0 16.3642 0C10.0322 0 4.59025 3.621 1.9845 8.912L7.37675 13.0297C8.61925 9.25825 12.161 6.5455 16.3642 6.5455Z" fill="#EA4335"/>
<path fill-rule="evenodd" clip-rule="evenodd" d="M16.3642 25.4545C12.1612 25.4545 8.6195 22.7418 7.377 18.9703L1.9845 23.0873C4.59025 28.379 10.0322 32 16.3642 32C20.2722 32 24.0035 30.6123 26.8037 28.0123L21.6852 24.0553C20.241 24.965 18.4222 25.4545 16.3642 25.4545Z" fill="#34A853"/>
<path fill-rule="evenodd" clip-rule="evenodd" d="M31.6585 16C31.6585 15.0545 31.5128 14.0363 31.2943 13.091H16.3643V19.2728H24.9583C24.5285 21.3805 23.359 23.0008 21.6853 24.0553L26.8038 28.0123C29.7453 25.2823 31.6585 21.2153 31.6585 16Z" fill="#4285F4"/>
</svg>
