<svg width="16" height="17" viewBox="0 0 16 17" fill="none" xmlns="http://www.w3.org/2000/svg">
<g clip-path="url(#clip0_146_270)">
<path d="M6 14.1352V9.20191C6 8.82854 6 8.64186 6.07266 8.49925C6.13658 8.37381 6.23857 8.27182 6.36401 8.20791C6.50661 8.13524 6.6933 8.13524 7.06667 8.13524H8.93333C9.3067 8.13524 9.49339 8.13524 9.63599 8.20791C9.76144 8.27182 9.86342 8.37381 9.92734 8.49925C10 8.64186 10 8.82854 10 9.20191V14.1352M7.34513 1.97792L2.82359 5.49467C2.52135 5.72975 2.37022 5.84729 2.26135 5.99449C2.16491 6.12488 2.09307 6.27178 2.04935 6.42795C2 6.60427 2 6.79572 2 7.17862V12.0019C2 12.7486 2 13.122 2.14532 13.4072C2.27316 13.6581 2.47713 13.8621 2.72801 13.9899C3.01323 14.1352 3.3866 14.1352 4.13333 14.1352H11.8667C12.6134 14.1352 12.9868 14.1352 13.272 13.9899C13.5229 13.8621 13.7268 13.6581 13.8547 13.4072C14 13.122 14 12.7486 14 12.0019V7.17862C14 6.79572 14 6.60427 13.9506 6.42795C13.9069 6.27178 13.8351 6.12488 13.7386 5.99449C13.6298 5.84729 13.4787 5.72975 13.1764 5.49467L8.65487 1.97792C8.42065 1.79575 8.30354 1.70467 8.17423 1.66965C8.06013 1.63876 7.93987 1.63876 7.82577 1.66965C7.69646 1.70467 7.57935 1.79575 7.34513 1.97792Z" stroke="white" stroke-width="1.3" stroke-linecap="round" stroke-linejoin="round"/>
</g>
<defs>
<clipPath id="clip0_146_270">
<rect width="16" height="16" fill="white" transform="translate(0 0.135254)"/>
</clipPath>
</defs>
</svg>
