<svg width="24" height="24" viewBox="0 0 24 24" fill="none" xmlns="http://www.w3.org/2000/svg">
<path fill-rule="evenodd" clip-rule="evenodd" d="M12.2117 1C14.6932 1 16.9085 2.57622 17.7214 4.92351C17.8709 5.35359 17.6422 5.82326 17.211 5.97286C16.7809 6.12355 16.3112 5.89366 16.1616 5.46248C15.5798 3.78066 13.9903 2.64992 12.2084 2.64992H12.193C9.89193 2.64992 8.01762 4.51323 8.00773 6.81212L8.00696 8.28824L16.4017 8.28901C19.156 8.28901 21.3977 10.5307 21.3977 13.2861V18.0026C21.3977 20.758 19.156 22.9997 16.4017 22.9997H7.99596C5.24059 22.9997 3 20.758 3 18.0026V13.2861C3 11.1044 4.40463 9.24485 6.35727 8.565L6.35781 6.83082C6.37211 3.59917 8.98558 1 12.1897 1H12.2117ZM16.4017 9.93893H7.99596C6.15025 9.93893 4.64992 11.4404 4.64992 13.2861V18.0026C4.64992 19.8483 6.15025 21.3498 7.99596 21.3498H16.4017C18.2464 21.3498 19.7478 19.8483 19.7478 18.0026V13.2861C19.7478 11.4404 18.2464 9.93893 16.4017 9.93893ZM12.1992 13.5971C12.6546 13.5971 13.0241 13.9667 13.0241 14.4221V16.8662C13.0241 17.3216 12.6546 17.6911 12.1992 17.6911C11.7438 17.6911 11.3742 17.3216 11.3742 16.8662V14.4221C11.3742 13.9667 11.7438 13.5971 12.1992 13.5971Z" fill="#232856"/>
</svg>
