<svg width="128" height="35" viewBox="0 0 128 35" fill="none" xmlns="http://www.w3.org/2000/svg">
<path d="M17.1754 17.8777C17.5625 17.8777 17.8762 17.5639 17.8762 17.1768C17.8762 16.7898 17.5625 16.476 17.1754 16.476C16.7884 16.476 16.4746 16.7898 16.4746 17.1768C16.4746 17.5639 16.7884 17.8777 17.1754 17.8777Z" fill="#00B2B3"/>
<path fill-rule="evenodd" clip-rule="evenodd" d="M15.4424 18.9104C15.6269 18.5785 16.6842 18.0621 16.6842 18.0621C16.6842 18.0621 16.8072 19.2424 16.6228 19.5621C16.4383 19.8817 15.381 20.4104 15.381 20.4104C15.381 20.4104 15.258 19.2424 15.4424 18.9104Z" fill="#00B2B3"/>
<path fill-rule="evenodd" clip-rule="evenodd" d="M17.8149 19.5496C17.6182 19.2299 17.7043 18.0496 17.7043 18.0496C17.7043 18.0496 18.7863 18.5291 18.983 18.861C19.1797 19.1807 19.0936 20.361 19.0936 20.361C19.0936 20.361 18.0117 19.8692 17.8149 19.5496Z" fill="#00B2B3"/>
<path fill-rule="evenodd" clip-rule="evenodd" d="M19.5614 17.8037C19.1926 17.816 18.209 17.152 18.209 17.152C18.209 17.152 19.168 16.4635 19.5492 16.4512C19.9303 16.4389 20.9016 17.1029 20.9016 17.1029C20.9016 17.1029 19.9426 17.8037 19.5614 17.8037Z" fill="#00B2B3"/>
<path fill-rule="evenodd" clip-rule="evenodd" d="M18.9216 15.4308C18.7372 15.7628 17.6798 16.2791 17.6798 16.2791C17.6798 16.2791 17.5568 15.0988 17.7413 14.7791C17.9257 14.4595 18.9831 13.9308 18.9831 13.9308C18.9831 13.9308 19.106 15.0988 18.9216 15.4308Z" fill="#00B2B3"/>
<path fill-rule="evenodd" clip-rule="evenodd" d="M16.5367 14.7915C16.7334 15.1112 16.6473 16.2915 16.6473 16.2915C16.6473 16.2915 15.5654 15.812 15.3687 15.48C15.1719 15.1604 15.258 13.98 15.258 13.98C15.258 13.98 16.3523 14.4718 16.5367 14.7915Z" fill="#00B2B3"/>
<path fill-rule="evenodd" clip-rule="evenodd" d="M14.8031 16.5372C15.1719 16.5249 16.1555 17.1889 16.1555 17.1889C16.1555 17.1889 15.1965 17.8774 14.8154 17.8897C14.4342 17.902 13.4629 17.238 13.4629 17.238C13.4629 17.238 14.4219 16.5372 14.8031 16.5372Z" fill="#00B2B3"/>
<path d="M2.33607 21.332V25.9672L6.35656 28.291L8.68034 32.3115H13.3156L17.3361 34.6353L21.3566 32.3115H25.9795L28.3033 28.291L32.3238 25.9672V21.332L34.6476 17.3115L32.3238 13.291V8.65575L28.3033 6.33197L25.9795 2.32377H21.3443L17.3238 0L13.3033 2.32377H8.66804L6.34427 6.34427L2.32377 8.66804V13.3033L0 17.3238L2.33607 21.332ZM3.62705 21.5164H7.56148L9.33198 18.4426L12.6025 20.3361V23.3853H8.66804L6.60247 26.9508L3.61476 25.2295V21.5164H3.62705ZM13.8935 15.1721V11.3115L17.3238 13.291L20.7541 11.3115V15.1721L24 17.041L20.7541 18.9099V23.0287L17.3238 21.0492L13.8935 23.0287V19.5615L10.082 17.3607L13.8935 15.1721ZM7.58607 27.8484L9.41805 24.6763H12.6639L14.7295 28.2418L13.1312 31.0205H9.43034L7.58607 27.8484ZM14.373 31.4263L16.2172 28.2418L14.0287 24.4549L17.3238 22.5492L20.3361 24.2951L18.4426 27.5779L20.5697 31.2664L17.3238 33.1353L14.373 31.4263ZM25.2418 31.0205H21.9222L19.9426 27.5902L21.6271 24.6763H25.2418L27.0738 27.8484L25.2418 31.0205ZM28.0451 26.9508L25.9795 23.3853H22.0451V19.6722L25.0328 17.9508L27.0984 21.5164H31.0328V25.2295L28.0451 26.9508ZM33.1476 17.3115L31.4632 20.2254H27.8361L26.0041 17.0533L27.8361 13.8812H31.1558L33.1476 17.3115ZM31.0328 12.5902H27.0984L25.0328 16.1558L22.0451 14.4344V10.9795H25.9795L27.9222 7.61066L31.0205 9.40575V12.5902H31.0328ZM26.9877 6.65165L25.2418 9.68853H21.7623L19.9303 6.5164L21.6148 3.60246H25.2418L26.9877 6.65165ZM20.3361 3.23361L18.4426 6.5164L20.459 9.99591L17.3238 11.8033L14.1885 9.99591L16.2049 6.5164L14.3115 3.23361L17.3238 1.48771L20.3361 3.23361ZM9.41805 3.61476H13.0451L14.7295 6.5287L12.8976 9.70083H9.41805L7.65985 6.65165L9.41805 3.61476ZM6.72542 7.61066L8.66804 10.9795H12.6025V14.4344L9.33198 16.3279L7.56148 13.2541H3.62705V9.40575L6.72542 7.61066ZM3.11066 14.5328H6.81148L8.45903 17.373L6.81148 20.2131H3.18443L1.5 17.2992L3.11066 14.5328Z" fill="#00B2B3"/>
<path d="M58.4789 2.41625C58.4789 2.51068 58.4002 2.57364 58.3215 2.57364C56.6531 2.57364 54.6857 3.94298 53.9616 5.62711L47.4927 20.6426H49.8379C52.7025 20.6426 55.0319 18.3132 55.0319 15.4486C55.0319 15.3541 55.1106 15.2912 55.1893 15.2912C55.268 15.2912 55.3467 15.3699 55.3467 15.4486V20.8C55.3467 20.8944 55.268 20.9574 55.1893 20.9574H47.0205H45.903H43.2115H40.0636C39.9692 20.9574 39.9062 20.8787 39.9062 20.8C39.9062 20.7056 39.9849 20.6426 40.0636 20.6426C41.7478 20.6426 43.6995 19.2733 44.4235 17.5891L49.6648 5.50119C50.4517 3.70689 52.5608 2.25885 54.3551 2.25885H58.3057C58.4159 2.25885 58.4789 2.32181 58.4789 2.41625ZM43.0384 7.76768V2.41625C43.0384 2.32181 43.1171 2.25885 43.1958 2.25885H48.5472C48.6417 2.25885 48.7046 2.33755 48.7046 2.41625C48.7046 2.51068 48.6259 2.57364 48.5472 2.57364C45.6827 2.57364 43.3532 4.90309 43.3532 7.76768C43.3532 7.86212 43.2745 7.92508 43.1958 7.92508C43.1171 7.92508 43.0384 7.86212 43.0384 7.76768Z" fill="white"/>
<path d="M66.962 4.21027L61.1541 19.6822C61.0439 19.9655 61.0597 20.2174 61.1856 20.4062C61.2958 20.5636 61.5004 20.6581 61.7522 20.6581H62.0828C62.1772 20.6581 62.2401 20.7368 62.2401 20.8155C62.2401 20.8942 62.1614 20.9729 62.0828 20.9729H61.7522H60.1783H58.9821H58.6515C58.5571 20.9729 58.4941 20.8942 58.4941 20.8155C58.4941 20.7368 58.5728 20.6581 58.6515 20.6581H58.9821C59.5802 20.6581 60.257 20.1701 60.4773 19.572L66.2852 4.11583C66.3167 4.03714 66.7889 3.98992 66.8676 4.0214C66.962 4.0214 66.9935 4.11583 66.962 4.21027Z" fill="white"/>
<path d="M76.5323 20.7998C76.5323 20.8942 76.4536 20.9572 76.3749 20.9572H76.0444H74.8482H71.0707H69.8745H69.5283C69.4338 20.9572 69.3709 20.8785 69.3709 20.7998C69.3709 20.7211 69.4496 20.6424 69.5283 20.6424H69.8588C70.1106 20.6424 70.3152 20.5479 70.4411 20.3748C70.5828 20.1859 70.5985 19.9341 70.5041 19.6508L69.0403 15.1808H62.6343C62.5399 15.1808 62.4769 14.74 62.4769 14.6456C62.4769 14.5512 62.5556 14.4882 62.6343 14.4882H68.8042L65.9239 5.61113C65.373 3.94274 63.5787 2.5734 61.9103 2.5734C61.8159 2.5734 61.7529 2.4947 61.7529 2.416C61.7529 2.32156 61.8316 2.25861 61.9103 2.25861H65.6878C67.4664 2.25861 69.4023 3.70664 70.0004 5.48521L74.5964 19.5563C74.7853 20.1544 75.4306 20.6424 76.0287 20.6424H76.3592C76.4536 20.6424 76.5323 20.7211 76.5323 20.7998Z" fill="white"/>
<path d="M95.8288 3.754L90.5246 17.951V17.9668C90.5246 17.9668 90.5246 17.9668 90.5246 17.9825L89.4385 20.8786C89.4071 20.9416 89.3441 20.9888 89.2812 20.9888C89.2812 20.9888 90.32 20.9888 90.6977 20.9888H88.8404C86.6841 20.9888 86.6054 19.5407 86.0073 17.7622L82.0567 5.627C81.5058 3.95861 79.7115 2.60501 78.0431 2.60501C77.9487 2.60501 77.8857 2.52631 77.8857 2.44762C77.8857 2.36892 77.9644 2.29022 78.0431 2.29022H81.8206C83.6149 2.29022 85.5509 3.73826 86.149 5.53256L86.1647 5.5483L90.0366 17.4474L95.1835 3.69104C95.215 3.61234 95.6871 3.56512 95.7658 3.5966C95.8131 3.58086 95.8603 3.6753 95.8288 3.754Z" fill="white"/>
<path d="M82.7968 20.7998C82.7968 20.8943 82.7181 20.9572 82.6394 20.9572H82.3089H81.1127H79.5387H79.2082C79.1137 20.9572 79.0508 20.8785 79.0508 20.7998C79.0508 20.7211 79.1295 20.6424 79.2082 20.6424H79.5387C80.1053 20.6424 80.5775 20.186 80.5775 19.6036V3.09288C80.5775 2.99844 81.0182 2.93549 81.1127 2.93549C81.2071 2.93549 81.2701 3.01418 81.2701 3.09288V19.6036C81.2701 20.1703 81.7265 20.6424 82.3089 20.6424H82.6394C82.7181 20.6424 82.7968 20.7211 82.7968 20.7998Z" fill="white"/>
<path d="M100.503 20.7998C100.503 20.8942 100.425 20.9572 100.346 20.9572H100.015H98.8192H95.325H94.1288H93.7668C93.6723 20.9572 93.6094 20.8785 93.6094 20.7998C93.6094 20.7211 93.6881 20.6424 93.7668 20.6424H94.0973C94.6639 20.6424 95.1361 20.1859 95.1361 19.6036V2.416C95.1361 2.32156 95.2148 2.25861 95.2935 2.25861H99.9839H100.314C100.409 2.25861 100.472 2.3373 100.472 2.416C100.472 2.4947 100.393 2.5734 100.314 2.5734H99.9839C99.4173 2.5734 98.9451 3.02984 98.9451 3.61221V19.6036C98.9451 20.1702 99.4015 20.6424 99.9839 20.6424H100.314C100.425 20.6424 100.503 20.7211 100.503 20.7998Z" fill="white"/>
<path d="M109.507 20.7998C109.507 20.8942 109.428 20.9572 109.35 20.9572H109.019H103.132H102.802C102.707 20.9572 102.645 20.8785 102.645 20.7998C102.645 20.7211 102.723 20.6424 102.802 20.6424H103.132C103.699 20.6424 104.171 20.1859 104.171 19.6036V3.61221C104.171 3.04558 103.715 2.5734 103.132 2.5734H102.802C102.707 2.5734 102.645 2.4947 102.645 2.416C102.645 2.3373 102.723 2.25861 102.802 2.25861H103.132H104.329H107.823H109.019H109.35C109.444 2.25861 109.507 2.3373 109.507 2.416C109.507 2.4947 109.428 2.5734 109.35 2.5734H109.019C108.452 2.5734 107.98 3.02984 107.98 3.61221V19.6036C107.98 20.1702 108.437 20.6424 109.019 20.6424H109.35C109.428 20.6424 109.507 20.7211 109.507 20.7998Z" fill="white"/>
<path d="M128.001 3.01411V20.7998C128.001 20.8942 127.56 20.9572 127.465 20.9572H126.631C124.837 20.9572 122.744 19.4934 121.972 17.7148L116.731 5.62687C116.007 3.94274 114.04 2.5734 112.371 2.5734C112.277 2.5734 112.214 2.4947 112.214 2.416C112.214 2.32156 112.293 2.25861 112.371 2.25861H116.322C118.116 2.25861 120.225 3.70664 121.012 5.50095L126.254 17.5889C126.49 18.124 126.852 18.6434 127.308 19.0999V3.01411C127.308 2.91967 127.387 2.85671 127.465 2.85671C127.544 2.85671 128.001 2.91967 128.001 3.01411Z" fill="white"/>
<path d="M117.565 20.7999C117.565 20.8943 117.487 20.9573 117.408 20.9573H117.062H115.865H114.307H113.977C113.882 20.9573 113.819 20.8786 113.819 20.7999C113.819 20.7055 113.898 20.6425 113.977 20.6425H114.307C114.842 20.6425 115.283 20.2333 115.33 19.7139V3.61235C115.33 3.51791 115.771 3.45496 115.865 3.45496C115.96 3.45496 116.023 3.53365 116.023 3.61235V19.5722C116.023 19.588 116.023 19.6037 116.023 19.6037C116.023 20.1703 116.479 20.6425 117.062 20.6425H117.392C117.487 20.6425 117.565 20.7212 117.565 20.7999Z" fill="white"/>
<path d="M57.96 28.5749V28.9527H56.7638V33.3912H56.3545V28.9527H55.9453V28.5749H56.3545V27.4732C56.3545 26.7334 56.8582 26.3714 57.8655 26.3714H58.1646V26.7492H57.8655C57.1258 26.7492 56.7638 26.9852 56.7638 27.4889V28.5907H57.96V28.5749Z" fill="white"/>
<path d="M64.0825 32.3996C64.0825 33.1394 63.5789 33.5014 62.5715 33.5014C61.5642 33.5014 61.0605 33.1236 61.0605 32.3996V29.5822C61.0605 28.8425 61.5642 28.4805 62.5715 28.4805C63.5789 28.4805 64.0825 28.8582 64.0825 29.5822V32.3996ZM63.6733 29.5822C63.6733 29.0943 63.2956 28.8425 62.5715 28.8425C61.8475 28.8425 61.4698 29.0786 61.4698 29.5822V32.3996C61.4698 32.8875 61.8475 33.1394 62.5715 33.1394C63.2956 33.1394 63.6733 32.9033 63.6733 32.3996V29.5822Z" fill="white"/>
<path d="M69.9536 28.575H70.3628V33.3912H70.0008L69.9536 33.2338C69.623 33.407 69.1823 33.4857 68.6472 33.4857C67.8917 33.4857 67.3408 33.1394 67.3408 32.3839V28.575H67.75V32.3839C67.75 32.8718 68.1278 33.1237 68.8518 33.1237C69.261 33.1237 69.6703 33.045 69.8277 32.9978L69.9536 32.9505V28.575Z" fill="white"/>
<path d="M74.1718 33.3912H73.7783V28.5749H74.1246L74.1718 28.7323C74.5023 28.5592 74.943 28.4805 75.4782 28.4805C76.2337 28.4805 76.7846 28.8267 76.7846 29.5822V33.3912H76.3753V29.5822C76.3753 29.0943 75.9976 28.8425 75.2736 28.8425C74.8643 28.8425 74.4551 28.9212 74.2977 28.9684L74.1718 29.0156V33.3912Z" fill="white"/>
<path d="M82.6556 26.3713H83.0648V33.3911H82.7186L82.6714 33.2337C82.3408 33.4068 81.9001 33.4855 81.365 33.4855C80.6095 33.4855 80.0586 33.1393 80.0586 32.3838V29.5664C80.0586 28.8109 80.5937 28.4646 81.365 28.4646C81.8529 28.4646 82.3251 28.5591 82.5297 28.6378L82.6714 28.7007V26.3713H82.6556ZM82.6556 32.9504V29.0313C82.388 28.9053 82.026 28.8581 81.5538 28.8581C80.8141 28.8581 80.4521 29.0942 80.4521 29.5979V32.4153C80.4521 32.9032 80.8298 33.155 81.5538 33.155C81.9631 33.155 82.3723 33.0763 82.5297 33.0291L82.6556 32.9504Z" fill="white"/>
<path d="M89.0145 28.5748H89.3607V33.3911H89.0145L88.9673 33.2337C88.6367 33.4069 88.196 33.4856 87.6609 33.4856C86.9054 33.4856 86.3545 33.1393 86.3545 32.3838V29.5664C86.3545 28.8109 86.8896 28.4647 87.6609 28.4647C88.1488 28.4647 88.621 28.5591 88.8256 28.6378L88.9673 28.7008L89.0145 28.5748ZM88.9673 32.9504V29.0313C88.6997 28.9054 88.3377 28.8581 87.8655 28.8581C87.1257 28.8581 86.7637 29.0942 86.7637 29.5979V32.4153C86.7637 32.9032 87.1415 33.155 87.8655 33.155C88.2747 33.155 88.6839 33.0763 88.8413 33.0291L88.9673 32.9504Z" fill="white"/>
<path d="M94.5391 28.9525H93.3429V32.2893C93.3429 32.7772 93.7206 33.029 94.4446 33.029H94.7437V33.4068H94.4446C93.4373 33.4068 92.9336 33.029 92.9336 32.305V28.9682H92.5244V28.5905H92.9336V27.6933L93.1855 27.5989H93.3429V28.6062H94.5391V28.9525Z" fill="white"/>
<path d="M97.8438 26.3713H98.2372V27.9767H97.8438V26.3713ZM97.8438 33.3911V28.5748H98.2372V33.3911H97.8438Z" fill="white"/>
<path d="M104.581 32.3996C104.581 33.1394 104.077 33.5014 103.07 33.5014C102.062 33.5014 101.559 33.1236 101.559 32.3996V29.5822C101.559 28.8425 102.062 28.4805 103.07 28.4805C104.077 28.4805 104.581 28.8582 104.581 29.5822V32.3996ZM104.171 29.5822C104.171 29.0943 103.794 28.8425 103.07 28.8425C102.33 28.8425 101.968 29.0786 101.968 29.5822V32.3996C101.968 32.8875 102.346 33.1394 103.07 33.1394C103.809 33.1394 104.171 32.9033 104.171 32.3996V29.5822Z" fill="white"/>
<path d="M108.295 33.3912H107.901V28.5749H108.248L108.295 28.7323C108.625 28.5592 109.066 28.4805 109.601 28.4805C110.357 28.4805 110.908 28.8267 110.908 29.5822V33.3912H110.498V29.5822C110.498 29.0943 110.121 28.8425 109.397 28.8425C108.987 28.8425 108.578 28.9212 108.421 28.9684L108.295 29.0156V33.3912Z" fill="white"/>
</svg>
