<svg width="170" height="46" viewBox="0 0 170 46" fill="none" xmlns="http://www.w3.org/2000/svg">
<path d="M22.8122 23.743C23.3263 23.743 23.743 23.3262 23.743 22.8122C23.743 22.2981 23.3263 21.8814 22.8122 21.8814C22.2982 21.8814 21.8814 22.2981 21.8814 22.8122C21.8814 23.3262 22.2982 23.743 22.8122 23.743Z" fill="#00B2B3"/>
<path fill-rule="evenodd" clip-rule="evenodd" d="M20.5098 25.1147C20.7547 24.6738 22.159 23.988 22.159 23.988C22.159 23.988 22.3223 25.5556 22.0774 25.9802C21.8324 26.4047 20.4281 27.1069 20.4281 27.1069C20.4281 27.1069 20.2648 25.5556 20.5098 25.1147Z" fill="#00B2B3"/>
<path fill-rule="evenodd" clip-rule="evenodd" d="M23.6613 25.9638C23.4001 25.5392 23.5144 23.9716 23.5144 23.9716C23.5144 23.9716 24.9514 24.6085 25.2126 25.0494C25.4739 25.4739 25.3596 27.0415 25.3596 27.0415C25.3596 27.0415 23.9226 26.3884 23.6613 25.9638Z" fill="#00B2B3"/>
<path fill-rule="evenodd" clip-rule="evenodd" d="M25.9802 23.645C25.4903 23.6613 24.184 22.7795 24.184 22.7795C24.184 22.7795 25.4577 21.8651 25.9639 21.8487C26.4701 21.8324 27.7601 22.7142 27.7601 22.7142C27.7601 22.7142 26.4864 23.645 25.9802 23.645Z" fill="#00B2B3"/>
<path fill-rule="evenodd" clip-rule="evenodd" d="M25.131 20.4934C24.886 20.9343 23.4817 21.6201 23.4817 21.6201C23.4817 21.6201 23.3184 20.0525 23.5633 19.628C23.8083 19.2034 25.2126 18.5012 25.2126 18.5012C25.2126 18.5012 25.3759 20.0525 25.131 20.4934Z" fill="#00B2B3"/>
<path fill-rule="evenodd" clip-rule="evenodd" d="M21.9631 19.6443C22.2244 20.0689 22.1101 21.6365 22.1101 21.6365C22.1101 21.6365 20.6731 20.9997 20.4118 20.5588C20.1505 20.1342 20.2649 18.5666 20.2649 18.5666C20.2649 18.5666 21.7182 19.2198 21.9631 19.6443Z" fill="#00B2B3"/>
<path fill-rule="evenodd" clip-rule="evenodd" d="M19.6606 21.9631C20.1505 21.9468 21.4569 22.8286 21.4569 22.8286C21.4569 22.8286 20.1832 23.743 19.677 23.7594C19.1708 23.7757 17.8807 22.8939 17.8807 22.8939C17.8807 22.8939 19.1544 21.9631 19.6606 21.9631Z" fill="#00B2B3"/>
<path d="M3.10259 28.3316V34.4878L8.44232 37.574L11.5286 42.9137H17.6848L23.0245 46L28.3642 42.9137H34.5041L37.5903 37.574L42.9301 34.4878V28.3316L46.0163 22.9918L42.9301 17.6521V11.4959L37.5903 8.40966L34.5041 3.08626H28.3479L23.0082 0L17.6684 3.08626H11.5122L8.42599 8.42598L3.08626 11.5122V17.6684L0 23.0082L3.10259 28.3316ZM4.81718 28.5765H10.0426L12.394 24.4941L16.7377 27.0089V31.0586H11.5122L8.7689 35.7941L4.80085 33.508V28.5765H4.81718ZM18.4523 20.1505V15.0231L23.0082 17.6521L27.5641 15.0231V20.1505L31.875 22.6326L27.5641 25.1147V30.585L23.0082 27.956L18.4523 30.585V25.9801L13.3901 23.0571L18.4523 20.1505ZM10.0753 36.9862L12.5083 32.7732H16.8193L19.5627 37.5087L17.4398 41.1991H12.5247L10.0753 36.9862ZM19.0891 41.738L21.5385 37.5087L18.6319 32.4792L23.0082 29.9482L27.0089 32.2669L24.4941 36.6269L27.3191 41.5257L23.0082 44.0078L19.0891 41.738ZM33.5243 41.1991H29.1154L26.4863 36.6432L28.7235 32.7732H33.5243L35.9574 36.9862L33.5243 41.1991ZM37.2474 35.7941L34.5041 31.0586H29.2787V26.1271L33.2467 23.841L35.9901 28.5765H41.2155V33.508L37.2474 35.7941ZM44.0241 22.9918L41.787 26.8619H36.9698L34.5367 22.6489L36.9698 18.4359H41.3788L44.0241 22.9918ZM41.2155 16.7213H35.9901L33.2467 21.4569L29.2787 19.1707V14.5822H34.5041L37.0841 10.1079L41.1992 12.492V16.7213H41.2155ZM35.8431 8.83422L33.5243 12.8676H28.9031L26.47 8.6546L28.7071 4.78452H33.5243L35.8431 8.83422ZM27.0089 4.29464L24.4941 8.6546L27.1722 13.2758L23.0082 15.6763L18.8442 13.2758L21.5222 8.6546L19.0075 4.29464L23.0082 1.97586L27.0089 4.29464ZM12.5083 4.80085H17.3255L19.5627 8.67093L17.1296 12.8839H12.5083L10.1732 8.83422L12.5083 4.80085ZM8.9322 10.1079L11.5122 14.5822H16.7377V19.1707L12.394 21.6855L10.0426 17.6031H4.81718V12.492L8.9322 10.1079ZM4.13135 19.3014H9.04651L11.2346 23.0735L9.04651 26.8456H4.22932L1.99219 22.9755L4.13135 19.3014Z" fill="#00B2B3"/>
<path d="M77.6668 3.20904C77.6668 3.33446 77.5623 3.41808 77.4577 3.41808C75.2419 3.41808 72.6289 5.23674 71.6673 7.47347L63.0758 27.4159H66.1905C69.995 27.4159 73.0888 24.3221 73.0888 20.5176C73.0888 20.3922 73.1933 20.3086 73.2978 20.3086C73.4024 20.3086 73.5069 20.4131 73.5069 20.5176V27.625C73.5069 27.7504 73.4024 27.834 73.2978 27.834H62.4486H60.9644H57.3899H53.209C53.0836 27.834 53 27.7295 53 27.625C53 27.4996 53.1045 27.4159 53.209 27.4159C55.4458 27.4159 58.0379 25.5973 58.9995 23.3606L65.9605 7.30624C67.0057 4.92317 69.8069 3 72.1899 3H77.4368C77.5832 3 77.6668 3.08362 77.6668 3.20904ZM57.1599 10.3164V3.20904C57.1599 3.08362 57.2644 3 57.3689 3H64.4763C64.6018 3 64.6854 3.10452 64.6854 3.20904C64.6854 3.33446 64.5808 3.41808 64.4763 3.41808C60.6718 3.41808 57.578 6.51188 57.578 10.3164C57.578 10.4418 57.4735 10.5255 57.3689 10.5255C57.2644 10.5255 57.1599 10.4418 57.1599 10.3164Z" fill="#232856"/>
<path d="M88.934 5.59207L81.2204 26.1408C81.0741 26.517 81.095 26.8515 81.2622 27.1023C81.4086 27.3114 81.6803 27.4368 82.0148 27.4368H82.4538C82.5792 27.4368 82.6628 27.5413 82.6628 27.6458C82.6628 27.7504 82.5583 27.8549 82.4538 27.8549H82.0148H79.9244H78.3357H77.8967C77.7713 27.8549 77.6877 27.7504 77.6877 27.6458C77.6877 27.5413 77.7922 27.4368 77.8967 27.4368H78.3357C79.13 27.4368 80.0289 26.7888 80.3216 25.9944L88.0352 5.46665C88.077 5.36213 88.7041 5.29941 88.8086 5.34122C88.934 5.34122 88.9758 5.46665 88.934 5.59207Z" fill="#232856"/>
<path d="M101.644 27.625C101.644 27.7504 101.539 27.834 101.435 27.834H100.996H99.4071H94.3901H92.8014H92.3415C92.2161 27.834 92.1325 27.7295 92.1325 27.625C92.1325 27.5205 92.237 27.4159 92.3415 27.4159H92.7805C93.1149 27.4159 93.3867 27.2905 93.5539 27.0606C93.7421 26.8097 93.763 26.4753 93.6375 26.099L91.6935 20.1622H83.1855C83.0601 20.1622 82.9765 19.5769 82.9765 19.4515C82.9765 19.3261 83.081 19.2425 83.1855 19.2425H91.3799L87.5545 7.45257C86.8228 5.23674 84.4398 3.41808 82.2239 3.41808C82.0985 3.41808 82.0149 3.31356 82.0149 3.20904C82.0149 3.08362 82.1194 3 82.2239 3H87.2409C89.6031 3 92.1743 4.92317 92.9686 7.28533L99.0726 25.9736C99.3235 26.7679 100.181 27.4159 100.975 27.4159H101.414C101.539 27.4159 101.644 27.5205 101.644 27.625Z" fill="#232856"/>
<path d="M127.272 4.98588L120.227 23.8413V23.8622C120.227 23.8622 120.227 23.8623 120.227 23.8832L118.785 27.7295C118.743 27.8131 118.66 27.8758 118.576 27.8758C118.576 27.8758 119.956 27.8758 120.457 27.8758H117.991C115.127 27.8758 115.022 25.9527 114.228 23.5905L108.981 7.47347C108.249 5.25764 105.866 3.45989 103.651 3.45989C103.525 3.45989 103.442 3.35537 103.442 3.25085C103.442 3.14633 103.546 3.04181 103.651 3.04181H108.668C111.051 3.04181 113.622 4.96498 114.416 7.34805L114.437 7.36895L119.579 23.1724L126.415 4.90227C126.457 4.79775 127.084 4.73504 127.189 4.77684C127.251 4.75594 127.314 4.88136 127.272 4.98588Z" fill="#232856"/>
<path d="M109.964 27.625C109.964 27.7504 109.859 27.834 109.755 27.834H109.316H107.727H105.636H105.197C105.072 27.834 104.988 27.7295 104.988 27.625C104.988 27.5204 105.093 27.4159 105.197 27.4159H105.636C106.389 27.4159 107.016 26.8097 107.016 26.0363V4.10791C107.016 3.98248 107.601 3.89886 107.727 3.89886C107.852 3.89886 107.936 4.00339 107.936 4.10791V26.0363C107.936 26.7888 108.542 27.4159 109.316 27.4159H109.755C109.859 27.4159 109.964 27.5204 109.964 27.625Z" fill="#232856"/>
<path d="M133.481 27.625C133.481 27.7504 133.376 27.834 133.272 27.834H132.833H131.244H126.603H125.014H124.534C124.408 27.834 124.325 27.7295 124.325 27.625C124.325 27.5205 124.429 27.4159 124.534 27.4159H124.973C125.725 27.4159 126.352 26.8097 126.352 26.0363V3.20904C126.352 3.08362 126.457 3 126.561 3H132.791H133.23C133.355 3 133.439 3.10452 133.439 3.20904C133.439 3.31356 133.334 3.41808 133.23 3.41808H132.791C132.038 3.41808 131.411 4.0243 131.411 4.79775V26.0363C131.411 26.7888 132.017 27.4159 132.791 27.4159H133.23C133.376 27.4159 133.481 27.5205 133.481 27.625Z" fill="#232856"/>
<path d="M145.438 27.625C145.438 27.7504 145.333 27.834 145.229 27.834H144.79H136.972H136.533C136.407 27.834 136.324 27.7295 136.324 27.625C136.324 27.5205 136.428 27.4159 136.533 27.4159H136.972C137.724 27.4159 138.351 26.8097 138.351 26.0363V4.79775C138.351 4.0452 137.745 3.41808 136.972 3.41808H136.533C136.407 3.41808 136.324 3.31356 136.324 3.20904C136.324 3.10452 136.428 3 136.533 3H136.972H138.56H143.201H144.79H145.229C145.354 3 145.438 3.10452 145.438 3.20904C145.438 3.31356 145.333 3.41808 145.229 3.41808H144.79C144.037 3.41808 143.41 4.0243 143.41 4.79775V26.0363C143.41 26.7888 144.016 27.4159 144.79 27.4159H145.229C145.333 27.4159 145.438 27.5205 145.438 27.625Z" fill="#232856"/>
<path d="M170 4.0034V27.625C170 27.7504 169.415 27.834 169.289 27.834H168.181C165.798 27.834 163.018 25.8899 161.994 23.5278L155.033 7.47347C154.071 5.23674 151.458 3.41808 149.242 3.41808C149.117 3.41808 149.033 3.31356 149.033 3.20904C149.033 3.08362 149.138 3 149.242 3H154.489C156.872 3 159.673 4.92317 160.719 7.30624L167.68 23.3606C167.993 24.0713 168.474 24.7611 169.08 25.3673V4.0034C169.08 3.87797 169.185 3.79436 169.289 3.79436C169.394 3.79436 170 3.87797 170 4.0034Z" fill="#232856"/>
<path d="M156.141 27.625C156.141 27.7504 156.036 27.834 155.932 27.834H155.472H153.883H151.813H151.374C151.249 27.834 151.165 27.7295 151.165 27.625C151.165 27.4995 151.27 27.4159 151.374 27.4159H151.813C152.524 27.4159 153.11 26.8724 153.172 26.1826V4.79772C153.172 4.6723 153.758 4.58868 153.883 4.58868C154.008 4.58868 154.092 4.6932 154.092 4.79772V25.9944C154.092 26.0153 154.092 26.0362 154.092 26.0362C154.092 26.7888 154.698 27.4159 155.472 27.4159H155.911C156.036 27.4159 156.141 27.5204 156.141 27.625Z" fill="#232856"/>
<path d="M76.977 37.9516V38.4533H75.3883V44.3482H74.8448V38.4533H74.3013V37.9516H74.8448V36.4883C74.8448 35.5058 75.5137 35.025 76.8515 35.025H77.2487V35.5267H76.8515C75.8691 35.5267 75.3883 35.8403 75.3883 36.5092V37.9725H76.977V37.9516Z" fill="#232856"/>
<path d="M85.1086 43.0313C85.1086 44.0138 84.4397 44.4946 83.1018 44.4946C81.764 44.4946 81.095 43.9929 81.095 43.0313V39.2895C81.095 38.307 81.764 37.8262 83.1018 37.8262C84.4397 37.8262 85.1086 38.3279 85.1086 39.2895V43.0313ZM84.5651 39.2895C84.5651 38.6414 84.0634 38.307 83.1018 38.307C82.1403 38.307 81.6386 38.6205 81.6386 39.2895V43.0313C81.6386 43.6793 82.1403 44.0138 83.1018 44.0138C84.0634 44.0138 84.5651 43.7002 84.5651 43.0313V39.2895Z" fill="#232856"/>
<path d="M92.9058 37.9516H93.4493V44.3482H92.9685L92.9058 44.1392C92.4668 44.3691 91.8815 44.4737 91.1708 44.4737C90.1674 44.4737 89.4357 44.0138 89.4357 43.0104V37.9516H89.9792V43.0104C89.9792 43.6584 90.4809 43.9929 91.4425 43.9929C91.986 43.9929 92.5295 43.8883 92.7386 43.8256L92.9058 43.7629V37.9516Z" fill="#232856"/>
<path d="M98.5082 44.3482H97.9856V37.9516H98.4455L98.5082 38.1606C98.9472 37.9307 99.5325 37.8262 100.243 37.8262C101.247 37.8262 101.978 38.2861 101.978 39.2895V44.3482H101.435V39.2895C101.435 38.6414 100.933 38.307 99.9715 38.307C99.4279 38.307 98.8844 38.4115 98.6754 38.4742L98.5082 38.5369V44.3482Z" fill="#232856"/>
<path d="M109.775 35.025H110.319V44.3482H109.859L109.796 44.1392C109.357 44.3691 108.772 44.4737 108.061 44.4737C107.058 44.4737 106.326 44.0138 106.326 43.0104V39.2685C106.326 38.2652 107.037 37.8053 108.061 37.8053C108.709 37.8053 109.336 37.9307 109.608 38.0352L109.796 38.1188V35.025H109.775ZM109.775 43.7629V38.5578C109.42 38.3906 108.939 38.3279 108.312 38.3279C107.33 38.3279 106.849 38.6414 106.849 39.3104V43.0522C106.849 43.7002 107.351 44.0347 108.312 44.0347C108.856 44.0347 109.399 43.9302 109.608 43.8674L109.775 43.7629Z" fill="#232856"/>
<path d="M118.221 37.9516H118.68V44.3482H118.221L118.158 44.1392C117.719 44.3691 117.134 44.4736 116.423 44.4736C115.419 44.4736 114.688 44.0137 114.688 43.0104V39.2685C114.688 38.2651 115.399 37.8052 116.423 37.8052C117.071 37.8052 117.698 37.9307 117.97 38.0352L118.158 38.1188L118.221 37.9516ZM118.158 43.7629V38.5578C117.803 38.3906 117.322 38.3278 116.695 38.3278C115.712 38.3278 115.231 38.6414 115.231 39.3103V43.0522C115.231 43.7002 115.733 44.0346 116.695 44.0346C117.238 44.0346 117.782 43.9301 117.991 43.8674L118.158 43.7629Z" fill="#232856"/>
<path d="M125.558 38.4533H123.969V42.8849C123.969 43.5329 124.471 43.8674 125.433 43.8674H125.83V44.3691H125.433C124.095 44.3691 123.426 43.8674 123.426 42.9058V38.4742H122.882V37.9725H123.426V36.7809L123.76 36.6555H123.969V37.9934H125.558V38.4533Z" fill="#232856"/>
<path d="M129.948 35.025H130.47V37.1572H129.948V35.025ZM129.948 44.3482V37.9516H130.47V44.3482H129.948Z" fill="#232856"/>
<path d="M138.895 43.0313C138.895 44.0138 138.226 44.4946 136.888 44.4946C135.55 44.4946 134.881 43.9929 134.881 43.0313V39.2895C134.881 38.307 135.55 37.8262 136.888 37.8262C138.226 37.8262 138.895 38.3279 138.895 39.2895V43.0313ZM138.351 39.2895C138.351 38.6414 137.85 38.307 136.888 38.307C135.906 38.307 135.425 38.6205 135.425 39.2895V43.0313C135.425 43.6793 135.926 44.0138 136.888 44.0138C137.871 44.0138 138.351 43.7002 138.351 43.0313V39.2895Z" fill="#232856"/>
<path d="M143.828 44.3482H143.306V37.9516H143.765L143.828 38.1606C144.267 37.9307 144.852 37.8262 145.563 37.8262C146.567 37.8262 147.298 38.2861 147.298 39.2895V44.3482H146.755V39.2895C146.755 38.6414 146.253 38.307 145.291 38.307C144.748 38.307 144.204 38.4115 143.995 38.4742L143.828 38.5369V44.3482Z" fill="#232856"/>
</svg>
