<svg width="117" height="103" viewBox="0 0 117 103" fill="none" xmlns="http://www.w3.org/2000/svg">
<path d="M57.8121 23.743C58.3262 23.743 58.7429 23.3262 58.7429 22.8122C58.7429 22.2981 58.3262 21.8814 57.8121 21.8814C57.2981 21.8814 56.8813 22.2981 56.8813 22.8122C56.8813 23.3262 57.2981 23.743 57.8121 23.743Z" fill="#00B2B3"/>
<path fill-rule="evenodd" clip-rule="evenodd" d="M55.51 25.1147C55.7549 24.6738 57.1592 23.988 57.1592 23.988C57.1592 23.988 57.3225 25.5556 57.0776 25.9802C56.8327 26.4047 55.4283 27.1069 55.4283 27.1069C55.4283 27.1069 55.265 25.5556 55.51 25.1147Z" fill="#00B2B3"/>
<path fill-rule="evenodd" clip-rule="evenodd" d="M58.6616 25.9638C58.4003 25.5392 58.5146 23.9716 58.5146 23.9716C58.5146 23.9716 59.9516 24.6085 60.2129 25.0494C60.4742 25.4739 60.3599 27.0415 60.3599 27.0415C60.3599 27.0415 58.9229 26.3884 58.6616 25.9638Z" fill="#00B2B3"/>
<path fill-rule="evenodd" clip-rule="evenodd" d="M60.9803 23.645C60.4904 23.6613 59.1841 22.7795 59.1841 22.7795C59.1841 22.7795 60.4578 21.8651 60.964 21.8487C61.4702 21.8324 62.7602 22.7142 62.7602 22.7142C62.7602 22.7142 61.4865 23.645 60.9803 23.645Z" fill="#00B2B3"/>
<path fill-rule="evenodd" clip-rule="evenodd" d="M60.1313 20.4934C59.8864 20.9343 58.482 21.6201 58.482 21.6201C58.482 21.6201 58.3187 20.0525 58.5637 19.628C58.8086 19.2034 60.213 18.5012 60.213 18.5012C60.213 18.5012 60.3762 20.0525 60.1313 20.4934Z" fill="#00B2B3"/>
<path fill-rule="evenodd" clip-rule="evenodd" d="M56.9634 19.6443C57.2247 20.0689 57.1104 21.6365 57.1104 21.6365C57.1104 21.6365 55.6734 20.9997 55.4121 20.5588C55.1508 20.1342 55.2651 18.5666 55.2651 18.5666C55.2651 18.5666 56.7184 19.2198 56.9634 19.6443Z" fill="#00B2B3"/>
<path fill-rule="evenodd" clip-rule="evenodd" d="M54.6608 21.9631C55.1506 21.9468 56.457 22.8286 56.457 22.8286C56.457 22.8286 55.1833 23.743 54.6771 23.7594C54.1709 23.7757 52.8809 22.8939 52.8809 22.8939C52.8809 22.8939 54.1546 21.9631 54.6608 21.9631Z" fill="#00B2B3"/>
<path d="M38.1026 28.3316V34.4878L43.4423 37.574L46.5286 42.9137H52.6848L58.0245 46L63.3642 42.9137H69.5041L72.5903 37.574L77.9301 34.4878V28.3316L81.0163 22.9918L77.9301 17.6521V11.4959L72.5903 8.40966L69.5041 3.08626H63.3479L58.0082 0L52.6684 3.08626H46.5122L43.426 8.42598L38.0863 11.5122V17.6684L35 23.0082L38.1026 28.3316ZM39.8172 28.5765H45.0426L47.394 24.4941L51.7377 27.0089V31.0586H46.5122L43.7689 35.7941L39.8009 33.508V28.5765H39.8172ZM53.4523 20.1505V15.0231L58.0082 17.6521L62.5641 15.0231V20.1505L66.875 22.6326L62.5641 25.1147V30.585L58.0082 27.956L53.4523 30.585V25.9801L48.3901 23.0571L53.4523 20.1505ZM45.0753 36.9862L47.5083 32.7732H51.8193L54.5627 37.5087L52.4398 41.1991H47.5247L45.0753 36.9862ZM54.0891 41.738L56.5385 37.5087L53.6319 32.4792L58.0082 29.9482L62.0089 32.2669L59.4941 36.6269L62.3191 41.5257L58.0082 44.0078L54.0891 41.738ZM68.5243 41.1991H64.1154L61.4863 36.6432L63.7235 32.7732H68.5243L70.9574 36.9862L68.5243 41.1991ZM72.2474 35.7941L69.5041 31.0586H64.2787V26.1271L68.2467 23.841L70.9901 28.5765H76.2155V33.508L72.2474 35.7941ZM79.0241 22.9918L76.787 26.8619H71.9698L69.5367 22.6489L71.9698 18.4359H76.3788L79.0241 22.9918ZM76.2155 16.7213H70.9901L68.2467 21.4569L64.2787 19.1707V14.5822H69.5041L72.0841 10.1079L76.1992 12.492V16.7213H76.2155ZM70.8431 8.83422L68.5243 12.8676H63.9031L61.47 8.6546L63.7071 4.78452H68.5243L70.8431 8.83422ZM62.0089 4.29464L59.4941 8.6546L62.1722 13.2758L58.0082 15.6763L53.8442 13.2758L56.5222 8.6546L54.0075 4.29464L58.0082 1.97586L62.0089 4.29464ZM47.5083 4.80085H52.3255L54.5627 8.67093L52.1296 12.8839H47.5083L45.1732 8.83422L47.5083 4.80085ZM43.9322 10.1079L46.5122 14.5822H51.7377V19.1707L47.394 21.6855L45.0426 17.6031H39.8172V12.492L43.9322 10.1079ZM39.1313 19.3014H44.0465L46.2346 23.0735L44.0465 26.8456H39.2293L36.9922 22.9755L39.1313 19.3014Z" fill="#00B2B3"/>
<path d="M24.6668 61.209C24.6668 61.3345 24.5623 61.4181 24.4577 61.4181C22.2419 61.4181 19.6289 63.2367 18.6673 65.4735L10.0758 85.4159H13.1905C16.995 85.4159 20.0888 82.3221 20.0888 78.5176C20.0888 78.3922 20.1933 78.3086 20.2978 78.3086C20.4024 78.3086 20.5069 78.4131 20.5069 78.5176V85.625C20.5069 85.7504 20.4024 85.834 20.2978 85.834H9.44863H7.96445H4.38985H0.209041C0.0836162 85.834 0 85.7295 0 85.625C0 85.4996 0.10452 85.4159 0.209041 85.4159C2.44577 85.4159 5.03788 83.5973 5.99946 81.3606L12.9605 65.3062C14.0057 62.9232 16.8069 61 19.1899 61H24.4368C24.5832 61 24.6668 61.0836 24.6668 61.209ZM4.15991 68.3164V61.209C4.15991 61.0836 4.26443 61 4.36895 61H11.4763C11.6018 61 11.6854 61.1045 11.6854 61.209C11.6854 61.3345 11.5808 61.4181 11.4763 61.4181C7.67179 61.4181 4.57799 64.5119 4.57799 68.3164C4.57799 68.4418 4.47347 68.5255 4.36895 68.5255C4.26443 68.5255 4.15991 68.4418 4.15991 68.3164Z" fill="#232856"/>
<path d="M35.9339 63.5921L28.2203 84.1408C28.074 84.517 28.0949 84.8515 28.2621 85.1023C28.4084 85.3114 28.6802 85.4368 29.0146 85.4368H29.4536C29.579 85.4368 29.6627 85.5413 29.6627 85.6458C29.6627 85.7504 29.5581 85.8549 29.4536 85.8549H29.0146H26.9242H25.3355H24.8965C24.7711 85.8549 24.6875 85.7504 24.6875 85.6458C24.6875 85.5413 24.792 85.4368 24.8965 85.4368H25.3355C26.1299 85.4368 27.0288 84.7888 27.3214 83.9944L35.035 63.4666C35.0768 63.3621 35.7039 63.2994 35.8085 63.3412C35.9339 63.3412 35.9757 63.4666 35.9339 63.5921Z" fill="#232856"/>
<path d="M48.6436 85.625C48.6436 85.7504 48.539 85.834 48.4345 85.834H47.9955H46.4068H41.3898H39.8011H39.3413C39.2158 85.834 39.1322 85.7295 39.1322 85.625C39.1322 85.5205 39.2367 85.4159 39.3413 85.4159H39.7802C40.1147 85.4159 40.3865 85.2905 40.5537 85.0606C40.7418 84.8097 40.7627 84.4753 40.6373 84.099L38.6932 78.1622H30.1853C30.0598 78.1622 29.9762 77.5769 29.9762 77.4515C29.9762 77.3261 30.0808 77.2425 30.1853 77.2425H38.3797L34.5542 65.4526C33.8226 63.2367 31.4395 61.4181 29.2237 61.4181C29.0983 61.4181 29.0146 61.3136 29.0146 61.209C29.0146 61.0836 29.1192 61 29.2237 61H34.2407C36.6028 61 39.174 62.9232 39.9684 65.2853L46.0724 83.9736C46.3232 84.7679 47.1803 85.4159 47.9746 85.4159H48.4136C48.539 85.4159 48.6436 85.5205 48.6436 85.625Z" fill="#232856"/>
<path d="M74.272 62.9859L67.2274 81.8413V81.8622C67.2274 81.8622 67.2274 81.8623 67.2274 81.8832L65.785 85.7295C65.7432 85.8131 65.6596 85.8758 65.5759 85.8758C65.5759 85.8758 66.9556 85.8758 67.4573 85.8758H64.9906C62.1268 85.8758 62.0223 83.9527 61.2279 81.5905L55.981 65.4735C55.2493 63.2576 52.8663 61.4599 50.6504 61.4599C50.525 61.4599 50.4414 61.3554 50.4414 61.2508C50.4414 61.1463 50.5459 61.0418 50.6504 61.0418H55.6674C58.0505 61.0418 60.6217 62.965 61.416 65.348L61.4369 65.369L66.5793 81.1724L73.415 62.9023C73.4568 62.7977 74.0839 62.735 74.1884 62.7768C74.2511 62.7559 74.3138 62.8814 74.272 62.9859Z" fill="#232856"/>
<path d="M56.9634 85.625C56.9634 85.7504 56.8589 85.834 56.7544 85.834H56.3154H54.7267H52.6363H52.1973C52.0719 85.834 51.9883 85.7295 51.9883 85.625C51.9883 85.5204 52.0928 85.4159 52.1973 85.4159H52.6363C53.3889 85.4159 54.016 84.8097 54.016 84.0363V62.1079C54.016 61.9825 54.6013 61.8989 54.7267 61.8989C54.8521 61.8989 54.9358 62.0034 54.9358 62.1079V84.0363C54.9358 84.7888 55.542 85.4159 56.3154 85.4159H56.7544C56.8589 85.4159 56.9634 85.5204 56.9634 85.625Z" fill="#232856"/>
<path d="M80.4807 85.625C80.4807 85.7504 80.3762 85.834 80.2716 85.834H79.8327H78.244H73.6032H72.0145H71.5337C71.4083 85.834 71.3247 85.7295 71.3247 85.625C71.3247 85.5205 71.4292 85.4159 71.5337 85.4159H71.9727C72.7253 85.4159 73.3524 84.8097 73.3524 84.0363V61.209C73.3524 61.0836 73.4569 61 73.5614 61H79.7908H80.2298C80.3553 61 80.4389 61.1045 80.4389 61.209C80.4389 61.3136 80.3344 61.4181 80.2298 61.4181H79.7908C79.0383 61.4181 78.4112 62.0243 78.4112 62.7978V84.0363C78.4112 84.7888 79.0174 85.4159 79.7908 85.4159H80.2298C80.3762 85.4159 80.4807 85.5205 80.4807 85.625Z" fill="#232856"/>
<path d="M92.4379 85.625C92.4379 85.7504 92.3334 85.834 92.2289 85.834H91.7899H83.9718H83.5328C83.4073 85.834 83.3237 85.7295 83.3237 85.625C83.3237 85.5205 83.4283 85.4159 83.5328 85.4159H83.9718C84.7243 85.4159 85.3514 84.8097 85.3514 84.0363V62.7978C85.3514 62.0452 84.7452 61.4181 83.9718 61.4181H83.5328C83.4073 61.4181 83.3237 61.3136 83.3237 61.209C83.3237 61.1045 83.4283 61 83.5328 61H83.9718H85.5605H90.2012H91.7899H92.2289C92.3543 61 92.4379 61.1045 92.4379 61.209C92.4379 61.3136 92.3334 61.4181 92.2289 61.4181H91.7899C91.0373 61.4181 90.4102 62.0243 90.4102 62.7978V84.0363C90.4102 84.7888 91.0164 85.4159 91.7899 85.4159H92.2289C92.3334 85.4159 92.4379 85.5205 92.4379 85.625Z" fill="#232856"/>
<path d="M117 62.0034V85.625C117 85.7504 116.415 85.834 116.289 85.834H115.181C112.798 85.834 110.018 83.8899 108.994 81.5278L102.033 65.4735C101.071 63.2367 98.4581 61.4181 96.2422 61.4181C96.1168 61.4181 96.0332 61.3136 96.0332 61.209C96.0332 61.0836 96.1377 61 96.2422 61H101.489C103.872 61 106.673 62.9232 107.719 65.3062L114.68 81.3606C114.993 82.0713 115.474 82.7611 116.08 83.3673V62.0034C116.08 61.878 116.185 61.7944 116.289 61.7944C116.394 61.7944 117 61.878 117 62.0034Z" fill="#232856"/>
<path d="M103.141 85.625C103.141 85.7504 103.036 85.834 102.932 85.834H102.472H100.883H98.8136H98.3746C98.2491 85.834 98.1655 85.7295 98.1655 85.625C98.1655 85.4995 98.27 85.4159 98.3746 85.4159H98.8136C99.5243 85.4159 100.11 84.8724 100.172 84.1826V62.7977C100.172 62.6723 100.758 62.5887 100.883 62.5887C101.008 62.5887 101.092 62.6932 101.092 62.7977V83.9944C101.092 84.0153 101.092 84.0362 101.092 84.0362C101.092 84.7888 101.698 85.4159 102.472 85.4159H102.911C103.036 85.4159 103.141 85.5204 103.141 85.625Z" fill="#232856"/>
<path d="M23.977 95.9516V96.4533H22.3883V102.348H21.8448V96.4533H21.3013V95.9516H21.8448V94.4883C21.8448 93.5058 22.5137 93.025 23.8516 93.025H24.2487V93.5267H23.8516C22.8691 93.5267 22.3883 93.8403 22.3883 94.5092V95.9725H23.977V95.9516Z" fill="#232856"/>
<path d="M32.1088 101.031C32.1088 102.014 31.4399 102.495 30.102 102.495C28.7641 102.495 28.0952 101.993 28.0952 101.031V97.2895C28.0952 96.307 28.7641 95.8262 30.102 95.8262C31.4399 95.8262 32.1088 96.3279 32.1088 97.2895V101.031ZM31.5653 97.2895C31.5653 96.6414 31.0636 96.307 30.102 96.307C29.1404 96.307 28.6387 96.6205 28.6387 97.2895V101.031C28.6387 101.679 29.1404 102.014 30.102 102.014C31.0636 102.014 31.5653 101.7 31.5653 101.031V97.2895Z" fill="#232856"/>
<path d="M39.9056 95.9516H40.4491V102.348H39.9683L39.9056 102.139C39.4666 102.369 38.8813 102.474 38.1706 102.474C37.1672 102.474 36.4355 102.014 36.4355 101.01V95.9516H36.9791V101.01C36.9791 101.658 37.4807 101.993 38.4423 101.993C38.9858 101.993 39.5293 101.888 39.7384 101.826L39.9056 101.763V95.9516Z" fill="#232856"/>
<path d="M45.508 102.348H44.9854V95.9516H45.4452L45.508 96.1606C45.9469 95.9307 46.5323 95.8262 47.243 95.8262C48.2464 95.8262 48.978 96.2861 48.978 97.2895V102.348H48.4345V97.2895C48.4345 96.6414 47.9328 96.307 46.9712 96.307C46.4277 96.307 45.8842 96.4115 45.6752 96.4742L45.508 96.5369V102.348Z" fill="#232856"/>
<path d="M56.7753 93.025H57.3188V102.348H56.859L56.7962 102.139C56.3573 102.369 55.772 102.474 55.0612 102.474C54.0578 102.474 53.3262 102.014 53.3262 101.01V97.2685C53.3262 96.2652 54.0369 95.8053 55.0612 95.8053C55.7092 95.8053 56.3364 95.9307 56.6081 96.0352L56.7962 96.1188V93.025H56.7753ZM56.7753 101.763V96.5578C56.42 96.3906 55.9392 96.3279 55.3121 96.3279C54.3296 96.3279 53.8488 96.6414 53.8488 97.3104V101.052C53.8488 101.7 54.3505 102.035 55.3121 102.035C55.8556 102.035 56.3991 101.93 56.6081 101.867L56.7753 101.763Z" fill="#232856"/>
<path d="M65.2208 95.9516H65.6807V102.348H65.2208L65.1581 102.139C64.7191 102.369 64.1338 102.474 63.423 102.474C62.4196 102.474 61.688 102.014 61.688 101.01V97.2685C61.688 96.2651 62.3987 95.8052 63.423 95.8052C64.0711 95.8052 64.6982 95.9307 64.9699 96.0352L65.1581 96.1188L65.2208 95.9516ZM65.1581 101.763V96.5578C64.8027 96.3906 64.3219 96.3278 63.6948 96.3278C62.7123 96.3278 62.2315 96.6414 62.2315 97.3103V101.052C62.2315 101.7 62.7332 102.035 63.6948 102.035C64.2383 102.035 64.7818 101.93 64.9908 101.867L65.1581 101.763Z" fill="#232856"/>
<path d="M72.558 96.4533H70.9693V100.885C70.9693 101.533 71.471 101.867 72.4326 101.867H72.8298V102.369H72.4326C71.0948 102.369 70.4258 101.867 70.4258 100.906V96.4742H69.8823V95.9725H70.4258V94.7809L70.7603 94.6555H70.9693V95.9934H72.558V96.4533Z" fill="#232856"/>
<path d="M76.9478 93.025H77.4704V95.1572H76.9478V93.025ZM76.9478 102.348V95.9516H77.4704V102.348H76.9478Z" fill="#232856"/>
<path d="M85.8949 101.031C85.8949 102.014 85.226 102.495 83.8881 102.495C82.5503 102.495 81.8813 101.993 81.8813 101.031V97.2895C81.8813 96.307 82.5503 95.8262 83.8881 95.8262C85.226 95.8262 85.8949 96.3279 85.8949 97.2895V101.031ZM85.3514 97.2895C85.3514 96.6414 84.8497 96.307 83.8881 96.307C82.9056 96.307 82.4249 96.6205 82.4249 97.2895V101.031C82.4249 101.679 82.9266 102.014 83.8881 102.014C84.8706 102.014 85.3514 101.7 85.3514 101.031V97.2895Z" fill="#232856"/>
<path d="M90.8283 102.348H90.3057V95.9516H90.7656L90.8283 96.1606C91.2673 95.9307 91.8526 95.8262 92.5633 95.8262C93.5667 95.8262 94.2983 96.2861 94.2983 97.2895V102.348H93.7548V97.2895C93.7548 96.6414 93.2531 96.307 92.2915 96.307C91.748 96.307 91.2045 96.4115 90.9955 96.4742L90.8283 96.5369V102.348Z" fill="#232856"/>
</svg>
