<svg width="170" height="47" viewBox="0 0 170 47" fill="none" xmlns="http://www.w3.org/2000/svg">
<path d="M22.8122 24.4672C23.3263 24.4672 23.743 24.052 23.743 23.5398C23.743 23.0277 23.3263 22.6125 22.8122 22.6125C22.2982 22.6125 21.8815 23.0277 21.8815 23.5398C21.8815 24.052 22.2982 24.4672 22.8122 24.4672Z" fill="#00B2B3"/>
<path fill-rule="evenodd" clip-rule="evenodd" d="M20.5097 25.8338C20.7547 25.3946 22.159 24.7113 22.159 24.7113C22.159 24.7113 22.3223 26.2731 22.0773 26.6961C21.8324 27.1191 20.4281 27.8187 20.4281 27.8187C20.4281 27.8187 20.2648 26.2731 20.5097 25.8338Z" fill="#00B2B3"/>
<path fill-rule="evenodd" clip-rule="evenodd" d="M23.6614 26.6799C23.4001 26.2569 23.5144 24.695 23.5144 24.695C23.5144 24.695 24.9514 25.3295 25.2126 25.7688C25.4739 26.1918 25.3596 27.7536 25.3596 27.7536C25.3596 27.7536 23.9226 27.1029 23.6614 26.6799Z" fill="#00B2B3"/>
<path fill-rule="evenodd" clip-rule="evenodd" d="M25.9802 24.3696C25.4903 24.3858 24.184 23.5073 24.184 23.5073C24.184 23.5073 25.4577 22.5962 25.9639 22.58C26.4701 22.5637 27.7601 23.4422 27.7601 23.4422C27.7601 23.4422 26.4864 24.3696 25.9802 24.3696Z" fill="#00B2B3"/>
<path fill-rule="evenodd" clip-rule="evenodd" d="M25.131 21.2296C24.886 21.6689 23.4817 22.3522 23.4817 22.3522C23.4817 22.3522 23.3184 20.7903 23.5633 20.3673C23.8083 19.9443 25.2126 19.2448 25.2126 19.2448C25.2126 19.2448 25.3759 20.7903 25.131 21.2296Z" fill="#00B2B3"/>
<path fill-rule="evenodd" clip-rule="evenodd" d="M21.9632 20.3839C22.2244 20.8069 22.1101 22.3687 22.1101 22.3687C22.1101 22.3687 20.6731 21.7342 20.4119 21.295C20.1506 20.872 20.2649 19.3101 20.2649 19.3101C20.2649 19.3101 21.7182 19.9609 21.9632 20.3839Z" fill="#00B2B3"/>
<path fill-rule="evenodd" clip-rule="evenodd" d="M19.6606 22.6939C20.1505 22.6776 21.4569 23.5561 21.4569 23.5561C21.4569 23.5561 20.1832 24.4672 19.677 24.4835C19.1708 24.4998 17.8807 23.6212 17.8807 23.6212C17.8807 23.6212 19.1544 22.6939 19.6606 22.6939Z" fill="#00B2B3"/>
<path d="M3.10259 29.0388V35.1723L8.44231 38.2472L11.5286 43.5672H17.6848L23.0245 46.6421L28.3642 43.5672H34.5041L37.5903 38.2472L42.9301 35.1723V29.0388L46.0163 23.7188L42.9301 18.3988V12.2653L37.5903 9.19043L34.5041 3.88668H28.3479L23.0082 0.811806L17.6684 3.88668H11.5122L8.42599 9.2067L3.08626 12.2816V18.4151L0 23.7351L3.10259 29.0388ZM4.81718 29.2829H10.0426L12.394 25.2156L16.7377 27.721V31.7558H11.5122L8.7689 36.4738L4.80085 34.1961V29.2829H4.81718ZM18.4523 20.888V15.7794L23.0082 18.3988L27.5641 15.7794V20.888L31.875 23.3609L27.5641 25.8338V31.284L23.0082 28.6646L18.4523 31.284V26.6961L13.3901 23.7839L18.4523 20.888ZM10.0753 37.6615L12.5083 33.464H16.8193L19.5627 38.1821L17.4398 41.8589H12.5247L10.0753 37.6615ZM19.0891 42.3958L21.5385 38.1821L18.6319 33.1712L23.0082 30.6495L27.0089 32.9597L24.4941 37.3036L27.3191 42.1843L23.0082 44.6572L19.0891 42.3958ZM33.5243 41.8589H29.1154L26.4863 37.3198L28.7235 33.464H33.5243L35.9574 37.6615L33.5243 41.8589ZM37.2474 36.4738L34.5041 31.7558H29.2787V26.8425L33.2467 24.5648L35.9901 29.2829H41.2155V34.1961L37.2474 36.4738ZM44.0241 23.7188L41.787 27.5746H36.9698L34.5367 23.3771L36.9698 19.1797H41.3788L44.0241 23.7188ZM41.2155 17.4714H35.9901L33.2467 22.1895L29.2787 19.9118V15.3402H34.5041L37.0841 10.8824L41.1992 13.2577V17.4714H41.2155ZM35.8431 9.61343L33.5243 13.6319H28.9031L26.47 9.43447L28.7071 5.57867H33.5243L35.8431 9.61343ZM27.0089 5.0906L24.4941 9.43447L27.1722 14.0386L23.0082 16.4302L18.8442 14.0386L21.5222 9.43447L19.0075 5.0906L23.0082 2.78038L27.0089 5.0906ZM12.5083 5.59494H17.3255L19.5627 9.45074L17.1296 13.6482H12.5083L10.1732 9.61343L12.5083 5.59494ZM8.9322 10.8824L11.5122 15.3402H16.7377V19.9118L12.394 22.4173L10.0426 18.35H4.81718V13.2577L8.9322 10.8824ZM4.13135 20.042H9.0465L11.2346 23.8001L9.0465 27.5583H4.22932L1.99219 23.7025L4.13135 20.042Z" fill="#00B2B3"/>
<path d="M77.6668 4.00901C77.6668 4.13397 77.5623 4.21728 77.4577 4.21728C75.2419 4.21728 72.6289 6.02922 71.6673 8.2577L63.0758 28.1266H66.1905C69.995 28.1266 73.0888 25.0442 73.0888 21.2537C73.0888 21.1287 73.1933 21.0454 73.2978 21.0454C73.4024 21.0454 73.5069 21.1496 73.5069 21.2537V28.3349C73.5069 28.4598 73.4024 28.5431 73.2978 28.5431H62.4486H60.9644H57.3899H53.209C53.0836 28.5431 53 28.439 53 28.3349C53 28.2099 53.1045 28.1266 53.209 28.1266C55.4458 28.1266 58.0379 26.3146 58.9995 24.0862L65.9605 8.09109C67.0057 5.71682 69.8069 3.80074 72.1899 3.80074H77.4368C77.5832 3.80074 77.6668 3.88405 77.6668 4.00901ZM57.1599 11.0902V4.00901C57.1599 3.88405 57.2644 3.80074 57.3689 3.80074H64.4763C64.6017 3.80074 64.6854 3.90487 64.6854 4.00901C64.6854 4.13397 64.5808 4.21728 64.4763 4.21728C60.6718 4.21728 57.578 7.29966 57.578 11.0902C57.578 11.2151 57.4735 11.2984 57.3689 11.2984C57.2644 11.2984 57.1599 11.2151 57.1599 11.0902Z" fill="#232856"/>
<path d="M88.934 6.38326L81.2204 26.8561C81.0741 27.231 81.095 27.5642 81.2622 27.8142C81.4085 28.0224 81.6803 28.1474 82.0148 28.1474H82.4537C82.5792 28.1474 82.6628 28.2515 82.6628 28.3557C82.6628 28.4598 82.5583 28.5639 82.4537 28.5639H82.0148H79.9244H78.3356H77.8967C77.7712 28.5639 77.6876 28.4598 77.6876 28.3557C77.6876 28.2515 77.7921 28.1474 77.8967 28.1474H78.3356C79.13 28.1474 80.0289 27.5017 80.3215 26.7103L88.0351 6.2583C88.0769 6.15416 88.7041 6.09168 88.8086 6.13334C88.934 6.13334 88.9758 6.2583 88.934 6.38326Z" fill="#232856"/>
<path d="M101.644 28.3349C101.644 28.4598 101.539 28.5431 101.435 28.5431H100.996H99.4071H94.3901H92.8014H92.3415C92.2161 28.5431 92.1325 28.439 92.1325 28.3349C92.1325 28.2307 92.237 28.1266 92.3415 28.1266H92.7805C93.1149 28.1266 93.3867 28.0016 93.5539 27.7725C93.7421 27.5226 93.763 27.1894 93.6375 26.8145L91.6935 20.8996H83.1855C83.0601 20.8996 82.9765 20.3165 82.9765 20.1915C82.9765 20.0666 83.081 19.9833 83.1855 19.9833H91.3799L87.5545 8.23688C86.8228 6.02922 84.4398 4.21728 82.2239 4.21728C82.0985 4.21728 82.0149 4.11314 82.0149 4.00901C82.0149 3.88405 82.1194 3.80074 82.2239 3.80074H87.2409C89.6031 3.80074 92.1743 5.71682 92.9686 8.07026L99.0726 26.6895C99.3234 27.4809 100.181 28.1266 100.975 28.1266H101.414C101.539 28.1266 101.644 28.2307 101.644 28.3349Z" fill="#232856"/>
<path d="M127.272 5.77946L120.227 24.5653V24.5862C120.227 24.5862 120.227 24.5862 120.227 24.607L118.785 28.4391C118.743 28.5225 118.66 28.5849 118.576 28.5849C118.576 28.5849 119.956 28.5849 120.457 28.5849H117.991C115.127 28.5849 115.022 26.6689 114.228 24.3154L108.981 8.25787C108.249 6.05021 105.866 4.25909 103.651 4.25909C103.525 4.25909 103.442 4.15496 103.442 4.05083C103.442 3.94669 103.546 3.84256 103.651 3.84256H108.668C111.051 3.84256 113.622 5.75863 114.416 8.1329L114.437 8.15373L119.579 23.8989L126.415 5.69615C126.457 5.59202 127.084 5.52953 127.189 5.57119C127.251 5.55036 127.314 5.67532 127.272 5.77946Z" fill="#232856"/>
<path d="M109.964 28.3349C109.964 28.4598 109.859 28.5431 109.755 28.5431H109.316H107.727H105.636H105.197C105.072 28.5431 104.988 28.439 104.988 28.3349C104.988 28.2307 105.093 28.1266 105.197 28.1266H105.636C106.389 28.1266 107.016 27.5226 107.016 26.752V4.90458C107.016 4.77962 107.601 4.69631 107.727 4.69631C107.852 4.69631 107.936 4.80044 107.936 4.90458V26.752C107.936 27.5018 108.542 28.1266 109.316 28.1266H109.755C109.859 28.1266 109.964 28.2307 109.964 28.3349Z" fill="#232856"/>
<path d="M133.481 28.3349C133.481 28.4598 133.376 28.5431 133.272 28.5431H132.833H131.244H126.603H125.014H124.534C124.408 28.5431 124.325 28.439 124.325 28.3349C124.325 28.2307 124.429 28.1266 124.534 28.1266H124.973C125.725 28.1266 126.352 27.5226 126.352 26.752V4.00901C126.352 3.88405 126.457 3.80074 126.561 3.80074H132.791H133.23C133.355 3.80074 133.439 3.90487 133.439 4.00901C133.439 4.11314 133.334 4.21728 133.23 4.21728H132.791C132.038 4.21728 131.411 4.82126 131.411 5.59186V26.752C131.411 27.5018 132.017 28.1266 132.791 28.1266H133.23C133.376 28.1266 133.481 28.2307 133.481 28.3349Z" fill="#232856"/>
<path d="M145.438 28.3349C145.438 28.4598 145.333 28.5431 145.229 28.5431H144.79H136.972H136.533C136.407 28.5431 136.324 28.439 136.324 28.3349C136.324 28.2307 136.428 28.1266 136.533 28.1266H136.972C137.724 28.1266 138.351 27.5226 138.351 26.752V5.59186C138.351 4.84209 137.745 4.21728 136.972 4.21728H136.533C136.407 4.21728 136.324 4.11314 136.324 4.00901C136.324 3.90487 136.428 3.80074 136.533 3.80074H136.972H138.56H143.201H144.79H145.229C145.354 3.80074 145.438 3.90487 145.438 4.00901C145.438 4.11314 145.333 4.21728 145.229 4.21728H144.79C144.037 4.21728 143.41 4.82126 143.41 5.59186V26.752C143.41 27.5018 144.016 28.1266 144.79 28.1266H145.229C145.333 28.1266 145.438 28.2307 145.438 28.3349Z" fill="#232856"/>
<path d="M170 4.80044V28.3349C170 28.4598 169.415 28.5431 169.289 28.5431H168.181C165.798 28.5431 163.018 26.6062 161.994 24.2528L155.033 8.2577C154.071 6.02922 151.458 4.21728 149.242 4.21728C149.117 4.21728 149.033 4.11314 149.033 4.00901C149.033 3.88405 149.138 3.80074 149.242 3.80074H154.489C156.872 3.80074 159.673 5.71682 160.719 8.09109L167.68 24.0862C167.993 24.7943 168.474 25.4816 169.08 26.0855V4.80044C169.08 4.67547 169.185 4.59217 169.289 4.59217C169.394 4.59217 170 4.67547 170 4.80044Z" fill="#232856"/>
<path d="M156.141 28.3348C156.141 28.4598 156.036 28.5431 155.932 28.5431H155.472H153.883H151.814H151.375C151.249 28.5431 151.166 28.439 151.166 28.3348C151.166 28.2099 151.27 28.1266 151.375 28.1266H151.814C152.524 28.1266 153.11 27.5851 153.172 26.8978V5.59184C153.172 5.46688 153.758 5.38357 153.883 5.38357C154.008 5.38357 154.092 5.4877 154.092 5.59184V26.7103C154.092 26.7312 154.092 26.752 154.092 26.752C154.092 27.5018 154.698 28.1266 155.472 28.1266H155.911C156.036 28.1266 156.141 28.2307 156.141 28.3348Z" fill="#232856"/>
<path d="M76.977 38.6233V39.1232H75.3883V44.9964H74.8448V39.1232H74.3013V38.6233H74.8448V37.1655C74.8448 36.1866 75.5137 35.7076 76.8515 35.7076H77.2487V36.2074H76.8515C75.8691 36.2074 75.3883 36.5198 75.3883 37.1863V38.6442H76.977V38.6233Z" fill="#232856"/>
<path d="M85.1086 43.6843C85.1086 44.6632 84.4396 45.1422 83.1018 45.1422C81.7639 45.1422 81.095 44.6423 81.095 43.6843V39.9563C81.095 38.9774 81.7639 38.4984 83.1018 38.4984C84.4396 38.4984 85.1086 38.9982 85.1086 39.9563V43.6843ZM84.565 39.9563C84.565 39.3106 84.0633 38.9774 83.1018 38.9774C82.1402 38.9774 81.6385 39.2898 81.6385 39.9563V43.6843C81.6385 44.3299 82.1402 44.6632 83.1018 44.6632C84.0633 44.6632 84.565 44.3508 84.565 43.6843V39.9563Z" fill="#232856"/>
<path d="M92.9059 38.6233H93.4494V44.9963H92.9686L92.9059 44.7881C92.4669 45.0172 91.8816 45.1213 91.1708 45.1213C90.1674 45.1213 89.4358 44.6631 89.4358 43.6634V38.6233H89.9793V43.6634C89.9793 44.3091 90.481 44.6423 91.4426 44.6423C91.9861 44.6423 92.5296 44.5381 92.7386 44.4757L92.9059 44.4132V38.6233Z" fill="#232856"/>
<path d="M98.5082 44.9964H97.9856V38.6233H98.4455L98.5082 38.8316C98.9472 38.6025 99.5325 38.4984 100.243 38.4984C101.247 38.4984 101.978 38.9566 101.978 39.9563V44.9964H101.435V39.9563C101.435 39.3106 100.933 38.9774 99.9715 38.9774C99.428 38.9774 98.8845 39.0815 98.6754 39.144L98.5082 39.2065V44.9964Z" fill="#232856"/>
<path d="M109.775 35.7076H110.319V44.9964H109.859L109.796 44.7881C109.357 45.0172 108.772 45.1213 108.061 45.1213C107.058 45.1213 106.326 44.6631 106.326 43.6635V39.9354C106.326 38.9357 107.037 38.4775 108.061 38.4775C108.709 38.4775 109.336 38.6025 109.608 38.7066L109.796 38.7899V35.7076H109.775ZM109.775 44.4132V39.2273C109.42 39.0607 108.939 38.9982 108.312 38.9982C107.33 38.9982 106.849 39.3106 106.849 39.9771V43.7051C106.849 44.3507 107.351 44.684 108.312 44.684C108.856 44.684 109.399 44.5798 109.608 44.5174L109.775 44.4132Z" fill="#232856"/>
<path d="M118.221 38.6233H118.68V44.9963H118.221L118.158 44.7881C117.719 45.0172 117.134 45.1213 116.423 45.1213C115.419 45.1213 114.688 44.6631 114.688 43.6634V39.9354C114.688 38.9357 115.398 38.4775 116.423 38.4775C117.071 38.4775 117.698 38.6025 117.97 38.7066L118.158 38.7899L118.221 38.6233ZM118.158 44.4132V39.2273C117.802 39.0607 117.322 38.9982 116.695 38.9982C115.712 38.9982 115.231 39.3106 115.231 39.9771V43.7051C115.231 44.3507 115.733 44.6839 116.695 44.6839C117.238 44.6839 117.782 44.5798 117.991 44.5173L118.158 44.4132Z" fill="#232856"/>
<path d="M125.558 39.1232H123.969V43.5385C123.969 44.1841 124.471 44.5173 125.432 44.5173H125.83V45.0172H125.432C124.095 45.0172 123.426 44.5173 123.426 43.5593V39.144H122.882V38.6441H123.426V37.457L123.76 37.332H123.969V38.665H125.558V39.1232Z" fill="#232856"/>
<path d="M129.948 35.7076H130.47V37.8319H129.948V35.7076ZM129.948 44.9964V38.6233H130.47V44.9964H129.948Z" fill="#232856"/>
<path d="M138.895 43.6843C138.895 44.6632 138.226 45.1422 136.888 45.1422C135.55 45.1422 134.881 44.6423 134.881 43.6843V39.9563C134.881 38.9774 135.55 38.4984 136.888 38.4984C138.226 38.4984 138.895 38.9982 138.895 39.9563V43.6843ZM138.351 39.9563C138.351 39.3106 137.85 38.9774 136.888 38.9774C135.906 38.9774 135.425 39.2898 135.425 39.9563V43.6843C135.425 44.3299 135.926 44.6632 136.888 44.6632C137.871 44.6632 138.351 44.3508 138.351 43.6843V39.9563Z" fill="#232856"/>
<path d="M143.828 44.9964H143.306V38.6233H143.765L143.828 38.8316C144.267 38.6025 144.852 38.4984 145.563 38.4984C146.567 38.4984 147.298 38.9566 147.298 39.9563V44.9964H146.755V39.9563C146.755 39.3106 146.253 38.9774 145.291 38.9774C144.748 38.9774 144.204 39.0815 143.995 39.144L143.828 39.2065V44.9964Z" fill="#232856"/>
</svg>
