<svg width="40" height="40" viewBox="0 0 40 40" fill="none" xmlns="http://www.w3.org/2000/svg">
<rect width="40" height="40" rx="8.32639" fill="#ECF0FB"/>
<path d="M17.5 15.8333H13.8333C13.3666 15.8333 13.1333 15.8333 12.955 15.9242C12.7982 16.0041 12.6707 16.1315 12.5908 16.2883C12.5 16.4666 12.5 16.7 12.5 17.1667V26.1667C12.5 26.6334 12.5 26.8667 12.5908 27.045C12.6707 27.2018 12.7982 27.3293 12.955 27.4092C13.1333 27.5 13.3666 27.5 13.8333 27.5H17.5M17.5 27.5H22.5M17.5 27.5L17.5 13.8333C17.5 13.3666 17.5 13.1333 17.5908 12.955C17.6707 12.7982 17.7982 12.6707 17.955 12.5908C18.1333 12.5 18.3666 12.5 18.8333 12.5L21.1667 12.5C21.6334 12.5 21.8667 12.5 22.045 12.5908C22.2018 12.6707 22.3293 12.7982 22.4092 12.955C22.5 13.1333 22.5 13.3666 22.5 13.8333V27.5M22.5 19.1667H26.1667C26.6334 19.1667 26.8667 19.1667 27.045 19.2575C27.2018 19.3374 27.3293 19.4649 27.4092 19.6217C27.5 19.7999 27.5 20.0333 27.5 20.5V26.1667C27.5 26.6334 27.5 26.8667 27.4092 27.045C27.3293 27.2018 27.2018 27.3293 27.045 27.4092C26.8667 27.5 26.6334 27.5 26.1667 27.5H22.5" stroke="#5D82DB" stroke-width="1.8" stroke-linecap="round" stroke-linejoin="round"/>
</svg>
