<svg width="24" height="24" viewBox="0 0 24 24" fill="none" xmlns="http://www.w3.org/2000/svg">
<path fill-rule="evenodd" clip-rule="evenodd" d="M19.8399 18.193C19.8399 21.489 15.3199 21.87 11.9209 21.87L11.6776 21.8698C9.51208 21.8646 3.99988 21.7278 3.99988 18.173C3.99988 14.9443 8.33823 14.5128 11.7114 14.4965L12.1641 14.4962C14.3295 14.5015 19.8399 14.6382 19.8399 18.193ZM11.9209 15.996C7.65988 15.996 5.49988 16.728 5.49988 18.173C5.49988 19.631 7.65988 20.37 11.9209 20.37C16.1809 20.37 18.3399 19.638 18.3399 18.193C18.3399 16.735 16.1809 15.996 11.9209 15.996ZM11.9209 1.99963C14.8489 1.99963 17.2299 4.38163 17.2299 7.30963C17.2299 10.2376 14.8489 12.6186 11.9209 12.6186H11.8889C8.96688 12.6096 6.59988 10.2266 6.60985 7.30663C6.60985 4.38163 8.99188 1.99963 11.9209 1.99963ZM11.9209 3.42763C9.77988 3.42763 8.03786 5.16863 8.03786 7.30963C8.03088 9.44363 9.75988 11.1836 11.8919 11.1916L11.9209 11.9056V11.1916C14.0609 11.1916 15.8019 9.44963 15.8019 7.30963C15.8019 5.16863 14.0609 3.42763 11.9209 3.42763Z" fill="#232856"/>
</svg>
