<svg width="26" height="26" viewBox="0 0 26 26" fill="none" xmlns="http://www.w3.org/2000/svg">
<path d="M12.9448 15.7512C16.6619 15.7512 19.8358 16.3405 19.8358 18.6986C19.8358 21.0558 16.6823 21.6666 12.9448 21.6666C9.22767 21.6666 6.05376 21.0773 6.05376 18.7201C6.05376 16.3619 9.2073 15.7512 12.9448 15.7512ZM18.888 14.3312C20.3091 14.3049 21.8369 14.5 22.4014 14.6385C23.5974 14.8737 24.3841 15.3537 24.7101 16.0513C24.9855 16.624 24.9855 17.2884 24.7101 17.8602C24.2115 18.9422 22.6041 19.2895 21.9794 19.3793C21.8504 19.3988 21.7466 19.2866 21.7602 19.1568C22.0794 16.1586 19.5408 14.7371 18.8841 14.4102C18.856 14.3956 18.8502 14.3732 18.8531 14.3595C18.855 14.3497 18.8667 14.3341 18.888 14.3312ZM6.84513 14.3292L7.11273 14.3316C7.13408 14.3345 7.14475 14.3501 7.14669 14.3589C7.1496 14.3735 7.14378 14.395 7.11661 14.4106C6.45894 14.7375 3.9204 16.159 4.23954 19.1562C4.25312 19.287 4.1503 19.3982 4.02128 19.3796C3.39659 19.2899 1.78927 18.9425 1.29068 17.8605C1.01422 17.2878 1.01422 16.6244 1.29068 16.0517C1.6166 15.3541 2.40232 14.8741 3.59835 14.6379C4.16388 14.5004 5.69069 14.3053 7.11273 14.3316L6.84513 14.3292ZM12.9448 4.33325C15.4756 4.33325 17.5048 6.37238 17.5048 8.91884C17.5048 11.4643 15.4756 13.5054 12.9448 13.5054C10.414 13.5054 8.38472 11.4643 8.38472 8.91884C8.38472 6.37238 10.414 4.33325 12.9448 4.33325ZM19.1354 5.09797C21.5798 5.09797 23.4995 7.41126 22.8457 9.98797C22.4043 11.7227 20.8067 12.8749 19.0267 12.8281C18.8482 12.8232 18.6727 12.8066 18.5029 12.7774C18.3797 12.7559 18.3176 12.6164 18.3875 12.513C19.0665 11.508 19.4535 10.2992 19.4535 9.00158C19.4535 7.64736 19.0306 6.38486 18.2963 5.34969C18.273 5.3175 18.2555 5.26774 18.2788 5.23066C18.2982 5.20042 18.3341 5.18481 18.3681 5.177C18.6154 5.12627 18.8696 5.09797 19.1354 5.09797ZM6.86392 5.09787C7.12971 5.09787 7.38386 5.12617 7.63218 5.1769C7.66516 5.18471 7.70202 5.20129 7.72142 5.23056C7.74373 5.26764 7.72724 5.3174 7.70396 5.34959C6.96966 6.38477 6.54673 7.64727 6.54673 9.00148C6.54673 10.2991 6.93377 11.5079 7.61278 12.5129C7.68262 12.6163 7.62054 12.7558 7.49735 12.7773C7.32662 12.8075 7.15202 12.8231 6.97354 12.828C5.19355 12.8748 3.59593 11.7226 3.15457 9.98787C2.49981 7.41116 4.41948 5.09787 6.86392 5.09787Z" fill="#1D9DA0"/>
</svg>
