<svg width="16" height="17" viewBox="0 0 16 17" fill="none" xmlns="http://www.w3.org/2000/svg">
<path d="M14.6663 6.08948C14.6663 5.6856 14.6663 5.48366 14.5865 5.39016C14.5172 5.30902 14.4132 5.26596 14.3069 5.27433C14.1843 5.28398 14.0415 5.42677 13.7559 5.71236L11.333 8.13523L13.7559 10.5581C14.0415 10.8437 14.1843 10.9865 14.3069 10.9961C14.4132 11.0045 14.5172 10.9614 14.5865 10.8803C14.6663 10.7868 14.6663 10.5849 14.6663 10.181V6.08948Z" stroke="#929EAE" stroke-width="1.3" stroke-linecap="round" stroke-linejoin="round"/>
<path d="M1.33301 6.66857C1.33301 5.54846 1.33301 4.98841 1.55099 4.56059C1.74274 4.18426 2.0487 3.8783 2.42503 3.68655C2.85285 3.46857 3.4129 3.46857 4.53301 3.46857H8.13301C9.25311 3.46857 9.81317 3.46857 10.241 3.68655C10.6173 3.8783 10.9233 4.18426 11.115 4.56059C11.333 4.98841 11.333 5.54846 11.333 6.66857V9.6019C11.333 10.722 11.333 11.2821 11.115 11.7099C10.9233 12.0862 10.6173 12.3922 10.241 12.5839C9.81317 12.8019 9.25311 12.8019 8.13301 12.8019H4.53301C3.4129 12.8019 2.85285 12.8019 2.42503 12.5839C2.0487 12.3922 1.74274 12.0862 1.55099 11.7099C1.33301 11.2821 1.33301 10.722 1.33301 9.6019V6.66857Z" stroke="#929EAE" stroke-width="1.3" stroke-linecap="round" stroke-linejoin="round"/>
</svg>
