<svg width="21" height="19" viewBox="0 0 21 19" fill="none" xmlns="http://www.w3.org/2000/svg">
<path d="M16.1721 11.7234C15.9239 11.964 15.8098 12.3119 15.8664 12.653L16.7183 17.368C16.7902 17.7676 16.6215 18.1721 16.2871 18.403C15.9593 18.6426 15.5233 18.6714 15.1658 18.4797L10.9214 16.2659C10.7738 16.1874 10.6099 16.1452 10.4422 16.1404H10.1825C10.0924 16.1538 10.0043 16.1826 9.92376 16.2266L5.67834 18.4509C5.46847 18.5564 5.2308 18.5937 4.99793 18.5564C4.43059 18.449 4.05205 17.9085 4.14501 17.3383L4.99793 12.6233C5.05447 12.2793 4.94043 11.9295 4.69222 11.6851L1.23168 8.33093C0.94226 8.05014 0.841635 7.62848 0.973885 7.24802C1.1023 6.86852 1.43005 6.59156 1.82584 6.52927L6.58876 5.83831C6.95101 5.80093 7.26918 5.58052 7.43209 5.25468L9.53084 0.951768C9.58068 0.855935 9.64488 0.767768 9.72251 0.693018L9.80876 0.625935C9.8538 0.576102 9.90555 0.534893 9.96305 0.501352L10.0675 0.463018L10.2304 0.395935H10.6339C10.9942 0.43331 11.3114 0.648935 11.4772 0.970935L13.6038 5.25468C13.7571 5.56806 14.0551 5.7856 14.3992 5.83831L19.1621 6.52927C19.5646 6.58677 19.901 6.86468 20.0342 7.24802C20.1597 7.63231 20.0514 8.05398 19.7563 8.33093L16.1721 11.7234Z" fill="#F4DC00"/>
</svg>
