<svg width="182" height="184" viewBox="0 0 182 184" fill="none" xmlns="http://www.w3.org/2000/svg">
<path d="M179.639 118.474C179.639 118.659 179.483 118.783 179.328 118.783H178.645C177.526 118.783 176.594 119.679 176.594 120.823C176.594 121.008 175.724 121.132 175.538 121.132C175.351 121.132 175.227 120.977 175.227 120.823C175.227 119.71 174.326 118.783 173.177 118.783H172.524C172.338 118.783 172.213 118.628 172.213 118.474C172.213 118.319 172.369 118.165 172.524 118.165H173.177H175.538H178.645H179.297C179.483 118.165 179.639 118.288 179.639 118.474Z" fill="white"/>
<path d="M39.395 118.474C39.395 118.659 39.2397 118.783 39.0844 118.783C35.7911 118.783 31.9075 121.472 30.4783 124.779L17.7091 154.266H22.3384C27.9929 154.266 32.591 149.692 32.591 144.066C32.591 143.881 32.7464 143.757 32.9017 143.757C33.057 143.757 33.2124 143.912 33.2124 144.066V154.575C33.2124 154.761 33.057 154.884 32.9017 154.884H16.7771H14.5712H9.25848H3.04476C2.85834 154.884 2.73407 154.73 2.73407 154.575C2.73407 154.39 2.88941 154.266 3.04476 154.266C6.3691 154.266 10.2216 151.577 11.6508 148.27L21.9966 124.532C23.55 121.008 27.7132 118.165 31.2551 118.165H39.0533C39.2708 118.165 39.395 118.288 39.395 118.474ZM8.91673 128.983V118.474C8.91673 118.288 9.07207 118.165 9.22741 118.165H19.7907C19.9772 118.165 20.1014 118.319 20.1014 118.474C20.1014 118.659 19.9461 118.783 19.7907 118.783C14.1363 118.783 9.5381 123.357 9.5381 128.983C9.5381 129.168 9.38276 129.292 9.22741 129.292C9.07207 129.292 8.91673 129.168 8.91673 128.983Z" fill="white"/>
<path d="M56.1411 121.997L44.6767 152.381C44.4593 152.937 44.4903 153.431 44.7389 153.802C44.9564 154.111 45.3603 154.297 45.8574 154.297H46.5098C46.6962 154.297 46.8205 154.451 46.8205 154.606C46.8205 154.761 46.6651 154.915 46.5098 154.915H45.8574H42.7505H40.3893H39.7368C39.5504 154.915 39.4261 154.761 39.4261 154.606C39.4261 154.451 39.5815 154.297 39.7368 154.297H40.3893C41.5699 154.297 42.9058 153.339 43.3408 152.164L54.8051 121.812C54.8673 121.657 55.7993 121.564 55.9547 121.626C56.1411 121.626 56.2032 121.812 56.1411 121.997Z" fill="white"/>
<path d="M75.0307 154.575C75.0307 154.761 74.8754 154.884 74.7201 154.884H74.0676H71.7064H64.2499H61.8887H61.2052C61.0188 154.884 60.8945 154.73 60.8945 154.575C60.8945 154.421 61.0499 154.266 61.2052 154.266H61.8576C62.3547 154.266 62.7586 154.081 63.0072 153.741C63.2868 153.37 63.3179 152.875 63.1315 152.319L60.2421 143.541H47.5971C47.4107 143.541 47.2865 142.675 47.2865 142.49C47.2865 142.304 47.4418 142.181 47.5971 142.181H59.776L54.0905 124.748C53.0031 121.472 49.4613 118.783 46.168 118.783C45.9816 118.783 45.8573 118.628 45.8573 118.474C45.8573 118.288 46.0126 118.165 46.168 118.165H53.6245C57.1352 118.165 60.9566 121.008 62.1373 124.501L71.2093 152.133C71.5821 153.308 72.8559 154.266 74.0365 154.266H74.689C74.8754 154.266 75.0307 154.421 75.0307 154.575Z" fill="white"/>
<path d="M113.121 121.101L102.651 148.98V149.011C102.651 149.011 102.651 149.011 102.651 149.042L100.507 154.729C100.445 154.853 100.321 154.946 100.196 154.946C100.196 154.946 102.247 154.946 102.993 154.946H99.3264C95.07 154.946 94.9147 152.102 93.7341 148.609L85.9359 124.779C84.8485 121.502 81.3067 118.844 78.0134 118.844C77.827 118.844 77.7027 118.69 77.7027 118.535C77.7027 118.381 77.858 118.226 78.0134 118.226H85.4698C89.0117 118.226 92.8331 121.07 94.0137 124.593L94.0448 124.624L101.688 147.991L111.847 120.977C111.909 120.822 112.841 120.73 112.997 120.792C113.09 120.761 113.183 120.946 113.121 121.101Z" fill="white"/>
<path d="M87.3961 154.575C87.3961 154.761 87.2407 154.884 87.0854 154.884H86.433H84.0718H80.9649H80.3125C80.126 154.884 80.0018 154.73 80.0018 154.575C80.0018 154.421 80.1571 154.266 80.3125 154.266H80.9649C82.0834 154.266 83.0154 153.37 83.0154 152.226V119.803C83.0154 119.617 83.8853 119.494 84.0718 119.494C84.2582 119.494 84.3824 119.648 84.3824 119.803V152.226C84.3824 153.339 85.2834 154.266 86.433 154.266H87.0854C87.2407 154.266 87.3961 154.421 87.3961 154.575Z" fill="white"/>
<path d="M122.348 154.575C122.348 154.761 122.193 154.884 122.038 154.884H121.385H119.024H112.127H109.765H109.051C108.865 154.884 108.74 154.73 108.74 154.575C108.74 154.421 108.896 154.266 109.051 154.266H109.703C110.822 154.266 111.754 153.37 111.754 152.226V118.474C111.754 118.288 111.909 118.165 112.065 118.165H121.323H121.975C122.162 118.165 122.286 118.319 122.286 118.474C122.286 118.628 122.131 118.783 121.975 118.783H121.323C120.205 118.783 119.273 119.679 119.273 120.823V152.226C119.273 153.339 120.173 154.266 121.323 154.266H121.975C122.193 154.266 122.348 154.421 122.348 154.575Z" fill="white"/>
<path d="M140.12 154.575C140.12 154.761 139.964 154.884 139.809 154.884H139.156H127.537H126.884C126.698 154.884 126.574 154.73 126.574 154.575C126.574 154.421 126.729 154.266 126.884 154.266H127.537C128.655 154.266 129.587 153.37 129.587 152.226V120.823C129.587 119.71 128.686 118.783 127.537 118.783H126.884C126.698 118.783 126.574 118.628 126.574 118.474C126.574 118.319 126.729 118.165 126.884 118.165H127.537H129.898H136.795H139.156H139.809C139.995 118.165 140.12 118.319 140.12 118.474C140.12 118.628 139.964 118.783 139.809 118.783H139.156C138.038 118.783 137.106 119.679 137.106 120.823V152.226C137.106 153.339 138.007 154.266 139.156 154.266H139.809C139.964 154.266 140.12 154.421 140.12 154.575Z" fill="white"/>
<path d="M176.625 119.648V154.575C176.625 154.761 175.755 154.884 175.569 154.884H173.922C170.38 154.884 166.248 152.01 164.726 148.517L154.38 124.779C152.951 121.472 149.067 118.783 145.774 118.783C145.588 118.783 145.463 118.628 145.463 118.474C145.463 118.288 145.619 118.165 145.774 118.165H153.572C157.114 118.165 161.277 121.008 162.831 124.532L173.177 148.27C173.643 149.321 174.357 150.341 175.258 151.237V119.648C175.258 119.463 175.414 119.339 175.569 119.339C175.724 119.339 176.625 119.463 176.625 119.648Z" fill="white"/>
<path d="M156.027 154.575C156.027 154.761 155.871 154.884 155.716 154.884H155.032H152.671H149.595H148.943C148.757 154.884 148.632 154.73 148.632 154.575C148.632 154.39 148.788 154.266 148.943 154.266H149.595C150.652 154.266 151.522 153.462 151.615 152.442V120.823C151.615 120.637 152.485 120.514 152.671 120.514C152.858 120.514 152.982 120.668 152.982 120.823V152.164C152.982 152.195 152.982 152.226 152.982 152.226C152.982 153.339 153.883 154.266 155.032 154.266H155.685C155.871 154.266 156.027 154.421 156.027 154.575Z" fill="white"/>
<path d="M38.3698 169.844V170.586H36.0086V179.302H35.2008V170.586H34.393V169.844H35.2008V167.68C35.2008 166.228 36.195 165.517 38.1834 165.517H38.7737V166.258H38.1834C36.7232 166.258 36.0086 166.722 36.0086 167.711V169.875H38.3698V169.844Z" fill="white"/>
<path d="M50.4555 177.354C50.4555 178.807 49.4613 179.518 47.4729 179.518C45.4845 179.518 44.4903 178.776 44.4903 177.354V171.822C44.4903 170.369 45.4845 169.658 47.4729 169.658C49.4613 169.658 50.4555 170.4 50.4555 171.822V177.354ZM49.6477 171.822C49.6477 170.864 48.902 170.369 47.4729 170.369C46.0437 170.369 45.2981 170.833 45.2981 171.822V177.354C45.2981 178.313 46.0437 178.807 47.4729 178.807C48.902 178.807 49.6477 178.344 49.6477 177.354V171.822Z" fill="white"/>
<path d="M62.0441 169.844H62.8519V179.302H62.1373L62.0441 178.993C61.3917 179.333 60.5217 179.487 59.4654 179.487C57.9741 179.487 56.8867 178.807 56.8867 177.324V169.844H57.6945V177.324C57.6945 178.282 58.4401 178.776 59.8693 178.776C60.6771 178.776 61.4849 178.622 61.7956 178.529L62.0441 178.436V169.844Z" fill="white"/>
<path d="M70.3705 179.302H69.5938V169.844H70.2773L70.3705 170.153C71.0229 169.813 71.8928 169.658 72.9492 169.658C74.4405 169.658 75.5279 170.338 75.5279 171.822V179.302H74.7201V171.822C74.7201 170.864 73.9744 170.369 72.5453 170.369C71.7375 170.369 70.9297 170.524 70.619 170.616L70.3705 170.709V179.302Z" fill="white"/>
<path d="M87.1165 165.517H87.9243V179.302H87.2408L87.1476 178.993C86.4951 179.333 85.6252 179.487 84.5689 179.487C83.0776 179.487 81.9902 178.807 81.9902 177.324V171.791C81.9902 170.307 83.0465 169.627 84.5689 169.627C85.532 169.627 86.4641 169.813 86.8679 169.967L87.1476 170.091V165.517H87.1165ZM87.1165 178.436V170.74C86.5883 170.493 85.8737 170.4 84.9417 170.4C83.4815 170.4 82.7669 170.864 82.7669 171.853V177.386C82.7669 178.344 83.5125 178.838 84.9417 178.838C85.7495 178.838 86.5573 178.684 86.8679 178.591L87.1165 178.436Z" fill="white"/>
<path d="M99.6682 169.844H100.352V179.302H99.6682L99.575 178.993C98.9226 179.333 98.0526 179.487 96.9963 179.487C95.505 179.487 94.4176 178.807 94.4176 177.324V171.791C94.4176 170.307 95.4739 169.627 96.9963 169.627C97.9594 169.627 98.8915 169.813 99.2954 169.967L99.575 170.091L99.6682 169.844ZM99.575 178.436V170.74C99.0468 170.493 98.3323 170.4 97.4002 170.4C95.94 170.4 95.2254 170.864 95.2254 171.853V177.386C95.2254 178.344 95.971 178.838 97.4002 178.838C98.208 178.838 99.0158 178.684 99.3265 178.591L99.575 178.436Z" fill="white"/>
<path d="M110.573 170.586H108.212V177.139C108.212 178.097 108.958 178.591 110.387 178.591H110.977V179.333H110.387C108.398 179.333 107.404 178.591 107.404 177.169V170.617H106.596V169.875H107.404V168.113L107.901 167.928H108.212V169.906H110.573V170.586Z" fill="white"/>
<path d="M117.098 165.517H117.874V168.669H117.098V165.517ZM117.098 179.302V169.844H117.874V179.302H117.098Z" fill="white"/>
<path d="M130.395 177.354C130.395 178.807 129.401 179.518 127.412 179.518C125.424 179.518 124.43 178.776 124.43 177.354V171.822C124.43 170.369 125.424 169.658 127.412 169.658C129.401 169.658 130.395 170.4 130.395 171.822V177.354ZM129.587 171.822C129.587 170.864 128.842 170.369 127.412 170.369C125.952 170.369 125.238 170.833 125.238 171.822V177.354C125.238 178.313 125.983 178.807 127.412 178.807C128.873 178.807 129.587 178.344 129.587 177.354V171.822Z" fill="white"/>
<path d="M137.727 179.302H136.951V169.844H137.634L137.727 170.153C138.38 169.813 139.25 169.658 140.306 169.658C141.797 169.658 142.885 170.338 142.885 171.822V179.302H142.077V171.822C142.077 170.864 141.331 170.369 139.902 170.369C139.094 170.369 138.287 170.524 137.976 170.616L137.727 170.709V179.302Z" fill="white"/>
<path d="M89.2912 50.1344C90.2693 50.1344 91.0621 49.3456 91.0621 48.3726C91.0621 47.3996 90.2693 46.6108 89.2912 46.6108C88.3132 46.6108 87.5203 47.3996 87.5203 48.3726C87.5203 49.3456 88.3132 50.1344 89.2912 50.1344Z" fill="white"/>
<path fill-rule="evenodd" clip-rule="evenodd" d="M84.9105 52.7309C85.3766 51.8963 88.0485 50.5981 88.0485 50.5981C88.0485 50.5981 88.3592 53.5654 87.8931 54.369C87.4271 55.1726 84.7552 56.5017 84.7552 56.5017C84.7552 56.5017 84.4445 53.5654 84.9105 52.7309Z" fill="white"/>
<path fill-rule="evenodd" clip-rule="evenodd" d="M90.9068 54.3383C90.4097 53.5346 90.6272 50.5674 90.6272 50.5674C90.6272 50.5674 93.3612 51.7728 93.8583 52.6074C94.3554 53.411 94.1379 56.3782 94.1379 56.3782C94.1379 56.3782 91.4039 55.1419 90.9068 54.3383Z" fill="white"/>
<path fill-rule="evenodd" clip-rule="evenodd" d="M95.3186 49.9492C94.3865 49.9801 91.901 48.3111 91.901 48.3111C91.901 48.3111 94.3244 46.5802 95.2875 46.5493C96.2506 46.5183 98.7051 48.1874 98.7051 48.1874C98.7051 48.1874 96.2817 49.9492 95.3186 49.9492Z" fill="white"/>
<path fill-rule="evenodd" clip-rule="evenodd" d="M93.7029 43.9838C93.2369 44.8183 90.565 46.1165 90.565 46.1165C90.565 46.1165 90.2543 43.1492 90.7204 42.3456C91.1864 41.542 93.8583 40.2129 93.8583 40.2129C93.8583 40.2129 94.169 43.1492 93.7029 43.9838Z" fill="white"/>
<path fill-rule="evenodd" clip-rule="evenodd" d="M87.6756 42.3764C88.1727 43.18 87.9553 46.1473 87.9553 46.1473C87.9553 46.1473 85.2212 44.9418 84.7241 44.1073C84.227 43.3037 84.4445 40.3364 84.4445 40.3364C84.4445 40.3364 87.2096 41.5728 87.6756 42.3764Z" fill="white"/>
<path fill-rule="evenodd" clip-rule="evenodd" d="M83.295 46.7656C84.227 46.7347 86.7125 48.4037 86.7125 48.4037C86.7125 48.4037 84.2892 50.1346 83.3261 50.1655C82.3629 50.1964 79.9085 48.5274 79.9085 48.5274C79.9085 48.5274 82.3319 46.7656 83.295 46.7656Z" fill="white"/>
<path d="M51.7914 58.8196V70.4722L61.9508 76.314L67.8228 86.4212H79.5357L89.6951 92.2629L99.8546 86.4212H111.536L117.408 76.314L127.568 70.4722V58.8196L133.44 48.7124L127.568 38.6053V26.9527L117.408 21.1109L111.536 11.0346H99.8235L89.6641 5.19287L79.5046 11.0346H67.7917L61.9198 21.1418L51.7603 26.9836V38.6362L45.8884 48.7433L51.7914 58.8196ZM55.0536 59.2832H64.9956L69.4695 51.556L77.7337 56.316V63.9814H67.7917L62.5722 72.9449L55.0225 68.6177V59.2832H55.0536ZM80.9959 43.3343V33.629L89.6641 38.6053L98.3322 33.629V43.3343L106.534 48.0324L98.3322 52.7306V63.085L89.6641 58.1087L80.9959 63.085V54.3687L71.3646 48.8361L80.9959 43.3343ZM65.0577 75.2013L69.6869 67.2268H77.889L83.1086 76.1903L79.0697 83.1757H69.718L65.0577 75.2013ZM82.2076 84.1957L86.8679 76.1903L81.3377 66.6704L89.6641 61.8796L97.2759 66.2686L92.4913 74.5213L97.8662 83.7939L89.6641 88.492L82.2076 84.1957ZM109.672 83.1757H101.284L96.2817 74.5522L100.538 67.2268H109.672L114.301 75.2013L109.672 83.1757ZM116.756 72.9449L111.536 63.9814H101.594V54.6469L109.144 50.3197L114.364 59.2832H124.306V68.6177L116.756 72.9449ZM129.649 48.7124L125.393 56.0378H116.228L111.599 48.0634L116.228 40.0889H124.616L129.649 48.7124ZM124.306 36.8435H114.364L109.144 45.807L101.594 41.4798V32.7944H111.536L116.445 24.3254L124.275 28.8381V36.8435H124.306ZM114.084 21.9145L109.672 29.549H100.88L96.2506 21.5745L100.507 14.2491H109.672L114.084 21.9145ZM97.2759 13.3219L92.4913 21.5745L97.5866 30.3217L89.6641 34.8653L81.7416 30.3217L86.8368 21.5745L82.0522 13.3219L89.6641 8.93283L97.2759 13.3219ZM69.6869 14.2801H78.8522L83.1086 21.6054L78.4794 29.5799H69.6869L65.2441 21.9145L69.6869 14.2801ZM62.8829 24.3254L67.7917 32.7944H77.7337V41.4798L69.4695 46.2397L64.9956 38.5125H55.0536V28.8381L62.8829 24.3254ZM53.7487 41.7271H63.1004L67.2636 48.867L63.1004 56.0069H53.9351L49.6787 48.6815L53.7487 41.7271Z" fill="white"/>
</svg>
