<svg width="587" height="777" viewBox="0 0 587 777" fill="none" xmlns="http://www.w3.org/2000/svg">
<path d="M195.191 400.908C203.871 400.908 210.907 393.872 210.907 385.192C210.907 376.512 203.871 369.475 195.191 369.475C186.511 369.475 179.475 376.512 179.475 385.192C179.475 393.872 186.511 400.908 195.191 400.908Z" fill="black" fill-opacity="0.02"/>
<path fill-rule="evenodd" clip-rule="evenodd" d="M156.313 424.07C160.449 416.625 184.162 405.045 184.162 405.045C184.162 405.045 186.919 431.514 182.783 438.683C178.647 445.852 154.935 457.709 154.935 457.709C154.935 457.709 152.177 431.514 156.313 424.07Z" fill="black" fill-opacity="0.02"/>
<path fill-rule="evenodd" clip-rule="evenodd" d="M209.528 438.408C205.117 431.239 207.047 404.769 207.047 404.769C207.047 404.769 231.311 415.522 235.722 422.967C240.134 430.136 238.204 456.606 238.204 456.606C238.204 456.606 213.94 445.577 209.528 438.408Z" fill="black" fill-opacity="0.02"/>
<path fill-rule="evenodd" clip-rule="evenodd" d="M248.682 399.254C240.41 399.53 218.352 384.64 218.352 384.64C218.352 384.64 239.859 369.2 248.406 368.924C256.954 368.648 278.736 383.537 278.736 383.537C278.736 383.537 257.23 399.254 248.682 399.254Z" fill="black" fill-opacity="0.02"/>
<path fill-rule="evenodd" clip-rule="evenodd" d="M234.343 346.038C230.208 353.483 206.495 365.064 206.495 365.064C206.495 365.064 203.738 338.594 207.874 331.425C212.009 324.256 235.722 312.4 235.722 312.4C235.722 312.4 238.479 338.594 234.343 346.038Z" fill="black" fill-opacity="0.02"/>
<path fill-rule="evenodd" clip-rule="evenodd" d="M180.852 331.701C185.264 338.87 183.334 365.339 183.334 365.339C183.334 365.339 159.07 354.586 154.658 347.141C150.247 339.972 152.177 313.503 152.177 313.503C152.177 313.503 176.716 324.532 180.852 331.701Z" fill="black" fill-opacity="0.02"/>
<path fill-rule="evenodd" clip-rule="evenodd" d="M141.975 370.855C150.247 370.579 172.305 385.468 172.305 385.468C172.305 385.468 150.798 400.909 142.251 401.185C133.703 401.46 111.921 386.571 111.921 386.571C111.921 386.571 133.427 370.855 141.975 370.855Z" fill="black" fill-opacity="0.02"/>
<path d="M-137.612 478.387V582.336L-47.4489 634.449L4.66362 724.612H108.613L198.776 776.724L288.939 724.612H392.612L444.725 634.449L534.888 582.336V478.387L587 388.224L534.888 298.061V194.112L444.725 142L392.612 52.1125H288.663L198.5 0L108.337 52.1125H4.38788L-47.7246 142.275L-137.887 194.388V298.337L-190 388.5L-137.612 478.387ZM-108.66 482.523H-20.4276L19.2772 413.591L92.6207 456.053V524.434H4.38788L-41.9343 604.395L-108.936 565.793V482.523H-108.66ZM121.572 340.248V253.669L198.5 298.061L275.428 253.669V340.248L348.22 382.158L275.428 424.069V516.438L198.5 472.045L121.572 516.438V438.682L36.0965 389.327L121.572 340.248ZM-19.8761 624.523L21.2073 553.385H93.9993L140.322 633.346L104.477 695.66H21.483L-19.8761 624.523ZM132.325 704.759L173.685 633.346L124.605 548.422L198.5 505.684L266.053 544.837L223.591 618.457L271.292 701.175L198.5 743.086L132.325 704.759ZM376.069 695.66H301.622L257.23 618.732L295.005 553.385H376.069L417.152 624.523L376.069 695.66ZM438.934 604.395L392.612 524.434H304.379V441.164L371.381 402.562L417.703 482.523H505.936V565.793L438.934 604.395ZM553.361 388.224L515.587 453.572H434.247L393.164 382.434L434.247 311.296H508.693L553.361 388.224ZM505.936 282.345H417.703L371.381 362.306L304.379 323.704V246.225H392.612L436.177 170.675L505.66 210.932V282.345H505.936ZM415.222 149.169L376.069 217.273H298.038L256.954 146.136L294.729 80.7881H376.069L415.222 149.169ZM266.053 72.5163L223.591 146.136L268.811 224.166L198.5 264.698L128.19 224.166L173.409 146.136L130.947 72.5163L198.5 33.363L266.053 72.5163ZM21.2073 81.0639H102.547L140.322 146.411L99.2382 217.549H21.2073L-18.2218 149.169L21.2073 81.0639ZM-39.1771 170.675L4.38788 246.225H92.6207V323.704L19.2772 366.166L-20.4276 297.234H-108.66V210.932L-39.1771 170.675ZM-120.241 325.91H-37.2469L-0.299484 389.603L-37.2469 453.296H-118.587L-156.361 387.949L-120.241 325.91Z" fill="black" fill-opacity="0.02"/>
</svg>
