<svg width="20" height="20" viewBox="0 0 20 20" fill="none" xmlns="http://www.w3.org/2000/svg">
<path fill-rule="evenodd" clip-rule="evenodd" d="M10 0C4.47715 0 0 4.47715 0 10C0 15.5228 4.47715 20 10 20C15.5228 20 20 15.5228 20 10C20 4.47715 15.5228 0 10 0ZM7.80136 4.69878C8.37025 4.67289 8.55203 4.66655 10.0005 4.66655H9.99883C11.4477 4.66655 11.6288 4.67289 12.1977 4.69878C12.7655 4.72478 13.1533 4.81467 13.4933 4.94656C13.8444 5.08267 14.1411 5.26489 14.4378 5.56156C14.7344 5.85801 14.9167 6.15557 15.0533 6.50635C15.1844 6.84546 15.2744 7.23302 15.3011 7.80081C15.3267 8.3697 15.3333 8.55148 15.3333 9.99994C15.3333 11.4484 15.3267 11.6297 15.3011 12.1986C15.2744 12.7662 15.1844 13.1539 15.0533 13.4931C14.9167 13.8438 14.7344 14.1413 14.4378 14.4378C14.1414 14.7344 13.8443 14.9171 13.4936 15.0533C13.1543 15.1852 12.7663 15.2751 12.1985 15.3011C11.6296 15.327 11.4484 15.3333 9.99982 15.3333C8.55148 15.3333 8.36981 15.327 7.80091 15.3011C7.23324 15.2751 6.84557 15.1852 6.50623 15.0533C6.15567 14.9171 5.85812 14.7344 5.56178 14.4378C5.26522 14.1413 5.083 13.8438 4.94666 13.493C4.81488 13.1539 4.72499 12.7663 4.69888 12.1985C4.6731 11.6296 4.66666 11.4484 4.66666 9.99994C4.66666 8.55148 4.67333 8.36959 4.69877 7.8007C4.72433 7.23314 4.81433 6.84546 4.94655 6.50624C5.08322 6.15557 5.26544 5.85801 5.56211 5.56156C5.85856 5.265 6.15612 5.08278 6.5069 4.94656C6.84601 4.81467 7.23357 4.72478 7.80136 4.69878Z" fill="white"/>
<path fill-rule="evenodd" clip-rule="evenodd" d="M9.52199 5.6278C9.61489 5.62765 9.71483 5.6277 9.82268 5.62775L10.0004 5.6278C11.4245 5.6278 11.5932 5.63291 12.1556 5.65847C12.6756 5.68224 12.9578 5.76913 13.1458 5.84213C13.3947 5.9388 13.5721 6.05436 13.7587 6.24103C13.9454 6.4277 14.0609 6.60548 14.1578 6.85437C14.2308 7.04215 14.3178 7.32437 14.3415 7.84438C14.367 8.40661 14.3726 8.5755 14.3726 9.99884C14.3726 11.4222 14.367 11.5911 14.3415 12.1533C14.3177 12.6733 14.2308 12.9555 14.1578 13.1433C14.0611 13.3922 13.9454 13.5694 13.7587 13.756C13.572 13.9427 13.3948 14.0582 13.1458 14.1549C12.958 14.2282 12.6756 14.3149 12.1556 14.3387C11.5933 14.3642 11.4245 14.3698 10.0004 14.3698C8.57632 14.3698 8.40754 14.3642 7.84531 14.3387C7.3253 14.3147 7.04308 14.2278 6.85496 14.1548C6.60607 14.0581 6.42829 13.9426 6.24162 13.7559C6.05496 13.5692 5.9394 13.3919 5.84251 13.1429C5.76951 12.9551 5.68251 12.6729 5.65884 12.1529C5.63328 11.5906 5.62817 11.4217 5.62817 9.99751C5.62817 8.57327 5.63328 8.40527 5.65884 7.84304C5.68262 7.32304 5.76951 7.04081 5.84251 6.85281C5.93918 6.60392 6.05496 6.42614 6.24162 6.23947C6.42829 6.0528 6.60607 5.93725 6.85496 5.84036C7.04297 5.76702 7.3253 5.68035 7.84531 5.65647C8.33731 5.63424 8.52798 5.62758 9.52199 5.62646V5.6278ZM12.8474 6.51342C12.494 6.51342 12.2073 6.79975 12.2073 7.1532C12.2073 7.50654 12.494 7.79321 12.8474 7.79321C13.2007 7.79321 13.4874 7.50654 13.4874 7.1532C13.4874 6.79986 13.2007 6.5132 12.8474 6.5132V6.51342ZM7.26152 10C7.26152 8.48747 8.48781 7.26115 10.0003 7.26109C11.5129 7.26109 12.7389 8.48744 12.7389 10C12.7389 11.5126 11.513 12.7384 10.0004 12.7384C8.48787 12.7384 7.26152 11.5126 7.26152 10Z" fill="white"/>
<path d="M10.0005 8.22217C10.9822 8.22217 11.7782 9.01807 11.7782 9.99996C11.7782 10.9818 10.9822 11.7778 10.0005 11.7778C9.01855 11.7778 8.22266 10.9818 8.22266 9.99996C8.22266 9.01807 9.01855 8.22217 10.0005 8.22217Z" fill="white"/>
</svg>
