<svg width="21" height="19" viewBox="0 0 21 19" fill="none" xmlns="http://www.w3.org/2000/svg">
<path d="M15.8284 11.3603L15.8284 11.3603L15.8241 11.3644C15.4576 11.7196 15.2899 12.2324 15.3731 12.7348L15.3731 12.7348L15.3744 12.7419L16.2262 17.4565C16.2633 17.6626 16.1765 17.8718 16.003 17.9916L16.0029 17.9914L15.992 17.9994C15.8208 18.1246 15.5914 18.1405 15.4021 18.039L15.4021 18.039L15.3971 18.0364L11.1564 15.8246C11.1557 15.8242 11.1551 15.8239 11.1544 15.8235C10.937 15.7082 10.6979 15.6475 10.4565 15.6406L10.4494 15.6404H10.4422H10.1825H10.1455L10.1089 15.6458C9.96498 15.6673 9.82167 15.7132 9.68815 15.7856L5.45064 18.0058C5.3368 18.0621 5.20921 18.0823 5.08418 18.0638C4.78841 18.0041 4.5911 17.7215 4.63792 17.4224L5.48994 12.7123L5.49 12.7123L5.49131 12.7044C5.57418 12.2001 5.40703 11.6872 5.04301 11.3288L5.04021 11.3261L1.57984 7.97207C1.57983 7.97206 1.57982 7.97205 1.57981 7.97204C1.42947 7.82616 1.37798 7.60834 1.44617 7.41219L1.4475 7.40828C1.5162 7.20526 1.6907 7.05764 1.90108 7.02359L6.65131 6.33447C7.17938 6.27614 7.64178 5.95335 7.87931 5.47829L7.87933 5.4783L7.88149 5.47388L9.97698 1.17763C9.99945 1.13541 10.0257 1.09877 10.0543 1.06836L10.1157 1.02061L10.1503 0.99371L10.1797 0.961206C10.183 0.957574 10.1866 0.95398 10.1907 0.950415L10.2398 0.93241L10.2489 0.92906L10.2579 0.925357L10.3293 0.895935H10.604C10.7873 0.92195 10.9461 1.03394 11.0312 1.19706L13.1546 5.47444C13.1549 5.47489 13.1551 5.47535 13.1553 5.4758C13.3813 5.93663 13.8192 6.25528 14.3235 6.33254L14.3235 6.33256L14.3274 6.33313L19.0903 7.02409L19.0914 7.02424C19.3067 7.055 19.4873 7.20302 19.5603 7.40771C19.6232 7.60596 19.567 7.82291 19.4141 7.96631L19.4125 7.9678L15.8284 11.3603Z" stroke="#F4DC00"/>
</svg>
