<svg width="20" height="20" viewBox="0 0 20 20" fill="none" xmlns="http://www.w3.org/2000/svg">
<path fill-rule="evenodd" clip-rule="evenodd" d="M10 0C4.47715 0 0 4.47715 0 10C0 15.5228 4.47715 20 10 20C15.5228 20 20 15.5228 20 10C20 4.47715 15.5228 0 10 0ZM14.1673 6.56211C14.6263 6.68805 14.9877 7.05914 15.1104 7.53039C15.3333 8.38449 15.3333 10.1666 15.3333 10.1666C15.3333 10.1666 15.3333 11.9486 15.1104 12.8027C14.9877 13.274 14.6263 13.6451 14.1673 13.7711C13.3356 13.9999 9.99999 13.9999 9.99999 13.9999C9.99999 13.9999 6.66442 13.9999 5.8326 13.7711C5.37363 13.6451 5.01217 13.274 4.88951 12.8027C4.66666 11.9486 4.66666 10.1666 4.66666 10.1666C4.66666 10.1666 4.66666 8.38449 4.88951 7.53039C5.01217 7.05914 5.37363 6.68805 5.8326 6.56211C6.66442 6.33322 9.99999 6.33322 9.99999 6.33322C9.99999 6.33322 13.3356 6.33322 14.1673 6.56211Z" fill="white"/>
<path d="M9 12.0001V8.66675L11.6667 10.3335L9 12.0001Z" fill="white"/>
</svg>
